<svg width="94" height="100" viewBox="0 0 94 100" fill="none" xmlns="http://www.w3.org/2000/svg">
<path d="M37.5999 65H34.4666V70H37.5999V65Z" fill="#4B5A8A"/>
<path d="M37.5999 73.3333H34.4666V78.3333H37.5999V73.3333Z" fill="#4B5A8A"/>
<path d="M91.4933 16.8333L78.96 10.1667C78.8033 10 78.6467 10 78.3333 10H65.8V5C65.8 2.16667 63.7633 0 61.1 0H57.9667C56.7133 0 55.6167 0.5 54.8333 1.16667C54.05 0.333333 52.9533 0 51.7 0H48.5667C47.3133 0 46.2167 0.5 45.4333 1.16667C44.65 0.333333 43.5533 0 42.3 0H39.1667C37.9133 0 36.8167 0.5 36.0333 1.16667C35.25 0.333333 34.1533 0 32.9 0H29.7667C27.1033 0 25.0667 2.16667 25.0667 5V10H3.13332C2.19332 10 1.56665 10.6667 1.56665 11.6667V25C1.56665 26 2.19332 26.6667 3.13332 26.6667H25.0667V48.3333H23.5C22.56 48.3333 21.9333 49 21.9333 50V60C21.9333 61 22.56 61.6667 23.5 61.6667H26.6333V100H29.7667V61.6667H62.6667V100H65.8V61.6667H67.3667C68.3067 61.6667 68.9333 61 68.9333 60V50C68.9333 49 68.3067 48.3333 67.3667 48.3333H63.7633C66.74 45.1667 70.5 39.3333 70.5 31.6667V28.3333C70.5 27.6667 70.3433 27.1667 70.1867 26.6667H78.3333C78.6467 26.6667 78.8033 26.6667 78.96 26.5L91.4933 19.8333C92.12 19.5 92.4333 19 92.4333 18.3333C92.4333 17.6667 91.9633 17.1667 91.4933 16.8333ZM57.9667 3.33333H61.1C62.04 3.33333 62.6667 4 62.6667 5V23.3333H56.4V20V5C56.4 4 57.0267 3.33333 57.9667 3.33333ZM48.5667 3.33333H51.7C52.64 3.33333 53.2667 4 53.2667 5V20V23.3333H47V20V5C47 4 47.6267 3.33333 48.5667 3.33333ZM39.1667 3.33333H42.3C43.24 3.33333 43.8667 4 43.8667 5V20V23.6667C41.9867 24.3333 40.7333 26.1667 40.7333 28.3333H39.1667C38.2267 28.3333 37.6 27.6667 37.6 26.6667V5C37.6 4 38.2267 3.33333 39.1667 3.33333ZM28.2 5C28.2 4 28.8267 3.33333 29.7667 3.33333H32.9C33.84 3.33333 34.4667 4 34.4667 5V26.6667C34.4667 27.6667 33.84 28.3333 32.9 28.3333H29.7667C28.8267 28.3333 28.2 27.6667 28.2 26.6667V5ZM25.0667 16.6667H15.6667V13.3333H25.0667V16.6667ZM4.69998 13.3333H12.5333V23.3333H4.69998V13.3333ZM15.6667 23.3333V20H25.0667V23.3333H15.6667ZM65.8 58.3333H64.2333H28.2H25.0667V51.6667H26.6333H59.5333H65.8V58.3333ZM59.0633 48.3333H28.2V31.3333C28.67 31.5 29.14 31.6667 29.7667 31.6667H32.9C34.1533 31.6667 35.25 31.1667 36.0333 30.5C36.8167 31.3333 37.9133 31.6667 39.1667 31.6667H40.7333C40.7333 34.5 42.77 36.6667 45.4333 36.6667H65.8C66.1133 36.6667 66.4267 36.6667 66.74 36.5C65.0167 43.1667 60.4733 47.3333 59.0633 48.3333ZM67.3667 28.3333V31.6667C67.3667 32.6667 66.74 33.3333 65.8 33.3333H45.4333C44.4933 33.3333 43.8667 32.6667 43.8667 31.6667V28.3333C43.8667 27.3333 44.4933 26.6667 45.4333 26.6667H62.6667H64.2333H65.8C66.74 26.6667 67.3667 27.3333 67.3667 28.3333ZM78.02 23.3333H65.8V20H73.6333V16.6667H65.8V13.3333H76.7667V20H79.9V14.3333L87.42 18.3333L78.02 23.3333Z" fill="#4B5A8A"/>
</svg>
