<svg width="94" height="100" viewBox="0 0 94 100" fill="none" xmlns="http://www.w3.org/2000/svg">
<path d="M56.4464 16.5311C56.2235 9.96728 53.0557 3.93428 47.8745 0.280371C47.3443 -0.093457 46.6555 -0.093457 46.1253 0.280371C40.9441 3.93428 37.7765 9.96728 37.5536 16.5311C35.8774 18.3278 31.1306 24.4888 31.1306 36.6409C31.1306 37.3222 31.5163 37.9362 32.1079 38.197C32.3038 38.2833 32.5094 38.3253 32.7132 38.3253C33.1252 38.3253 33.5302 38.1542 33.8333 37.8319C37.6845 33.7351 46.7686 34.5323 46.8589 34.5407L46.8593 34.5366C46.9061 34.5411 46.9529 34.5474 46.9999 34.5474C47.0467 34.5474 47.0935 34.5411 47.1405 34.5366L47.1409 34.5407C47.1639 34.5388 49.4797 34.3253 52.3069 34.6577C54.808 34.9519 58.2017 35.7415 60.1665 37.8319C60.4696 38.1542 60.8745 38.3253 61.2866 38.3253C61.4906 38.3253 61.6962 38.2833 61.8919 38.1972C62.4837 37.9364 62.8692 37.3224 62.8692 36.6411C62.8692 24.4886 58.1226 18.3278 56.4464 16.5311ZM46.9999 3.7501C48.0143 4.57314 48.921 5.5124 49.7101 6.54326C48.87 6.97236 47.9436 7.20439 46.9995 7.20439C46.0564 7.20439 45.1304 6.97236 44.2899 6.54326C45.0788 5.5126 45.9857 4.57334 46.9999 3.7501ZM34.4346 33.3118C34.8486 28.4245 36.1203 24.9454 37.2182 22.7622C37.4622 22.2767 37.7064 21.8394 37.9447 21.4415C38.6596 25.0944 40.3041 28.4597 42.6978 31.1815C40.202 31.3616 37.0717 31.8972 34.4346 33.3118ZM46.9999 30.7972C43.04 27.5837 40.7061 22.6091 40.7061 17.2737C40.7059 14.4729 41.35 11.7722 42.5338 9.37295C43.8983 10.153 45.4348 10.5728 46.9995 10.5728C48.5654 10.5728 50.1019 10.153 51.466 9.37295C52.6498 11.7724 53.2939 14.4729 53.2939 17.2737C53.2937 22.6091 50.9597 27.5837 46.9999 30.7972ZM51.3019 31.1819C53.6956 28.4601 55.34 25.0948 56.0551 21.4419C56.2932 21.8395 56.5374 22.277 56.7816 22.7626C57.8795 24.9456 59.1511 28.4247 59.5651 33.3122C56.9283 31.8972 53.798 31.3618 51.3019 31.1819Z" fill="#4B5A8A"/>
<path d="M46.9999 11.8843C44.2939 11.8843 42.0923 14.2265 42.0923 17.1052C42.0923 19.9839 44.2939 22.3261 46.9999 22.3261C49.7059 22.3261 51.9076 19.9841 51.9076 17.1052C51.9076 14.2263 49.7059 11.8843 46.9999 11.8843ZM46.9999 18.9575C46.0397 18.9575 45.2587 18.1267 45.2587 17.1052C45.2587 16.0837 46.0397 15.2528 46.9999 15.2528C47.9601 15.2528 48.7411 16.0839 48.7411 17.1052C48.7411 18.1265 47.9601 18.9575 46.9999 18.9575Z" fill="#4B5A8A"/>
<path d="M83.6311 47.9193H79.3069V42.0617C79.3069 41.1316 78.5982 40.3775 77.7237 40.3775H54.1621V38.4851C54.1621 37.555 53.4534 36.8009 52.5789 36.8009C51.7045 36.8009 50.9958 37.555 50.9958 38.4851V55.8488V61.6136C50.9958 62.5437 51.7045 63.2978 52.5789 63.2978C53.4534 63.2978 54.1621 62.5437 54.1621 61.6136V56.6085C55.1294 55.8007 56.3141 55.3613 57.5593 55.3613C60.5309 55.3613 63.0071 57.9322 63.0783 61.0925C63.0897 61.589 63.3063 62.0552 63.6706 62.3658C64.0352 62.6763 64.5094 62.8003 64.9678 62.7042C65.221 62.6511 65.479 62.6242 65.7343 62.6242C67.8991 62.6242 69.6601 64.4976 69.6601 66.8005C69.6601 69.1035 67.8991 70.9769 65.7343 70.9769C64.8733 70.9769 64.0561 70.6857 63.3708 70.1347C63.026 69.8576 62.5897 69.7423 62.1633 69.8158C61.7366 69.8894 61.3569 70.1451 61.112 70.5238C60.3776 71.6595 59.1674 72.3374 57.8752 72.3374C56.6108 72.3374 55.4158 71.6818 54.6785 70.5831C54.1927 69.8599 53.2621 69.6621 52.5532 70.1322C51.9327 70.5435 51.2167 70.7607 50.4827 70.7607C49.5673 70.7607 48.7093 70.4353 48.0014 69.8201C47.4183 69.3132 46.5807 69.3132 45.9978 69.8201C45.2899 70.4353 44.432 70.7607 43.5164 70.7607C42.7826 70.7607 42.0667 70.5433 41.4458 70.132C40.7364 69.6623 39.8056 69.8599 39.3205 70.583C38.5834 71.6816 37.3884 72.3373 36.1238 72.3373C34.8317 72.3373 33.6216 71.6591 32.8872 70.5234C32.6423 70.1445 32.2626 69.889 31.8361 69.8156C31.4091 69.7417 30.9733 69.8572 30.6285 70.1343C29.9431 70.6853 29.1257 70.9765 28.2649 70.9765C26.1001 70.9765 24.3391 69.1031 24.3391 66.8001C24.3391 64.4972 26.1001 62.6238 28.2649 62.6238C28.5201 62.6238 28.778 62.6507 29.0312 62.7039C29.4898 62.7999 29.964 62.6759 30.3283 62.3654C30.6929 62.0546 30.9094 61.5888 30.9207 61.0921C30.9925 57.932 33.4681 55.3609 36.4398 55.3609C37.6849 55.3609 38.8696 55.8005 39.837 56.6082V61.6132C39.837 62.5433 40.5456 63.2974 41.4201 63.2974C42.2946 63.2974 43.0032 62.5433 43.0032 61.6132V55.8484V38.4847C43.0032 37.5546 42.2946 36.8005 41.4201 36.8005C40.5456 36.8005 39.837 37.5546 39.837 38.4847V40.3771H16.2762C15.4018 40.3771 14.6931 41.1312 14.6931 42.0613V47.9189H10.3685C9.49407 47.9189 8.7854 48.673 8.7854 49.6031V98.3154C8.7854 99.2455 9.49407 99.9995 10.3685 99.9995H83.6311C84.5055 99.9995 85.2142 99.2455 85.2142 98.3154V49.6035C85.2144 48.6734 84.5055 47.9193 83.6311 47.9193ZM45.4166 96.6318H11.9517V51.2878H14.6931L14.6933 92.9732C14.6933 93.9033 15.4019 94.6574 16.2764 94.6574H45.4166V96.6318ZM17.8595 91.289V89.0017H41.6825C43.1749 89.0017 44.4619 89.94 45.0593 91.289H17.8595ZM45.4168 86.8031C44.3396 86.0628 43.0572 85.633 41.6826 85.633H17.8595L17.8593 43.7457H39.8373V43.7458V52.7253C38.7762 52.2451 37.6254 51.9929 36.4401 51.9929C32.3265 51.9929 28.8166 55.1238 27.9553 59.2628C24.1878 59.4359 21.1734 62.7507 21.1734 66.8005C21.1734 70.9607 24.3549 74.3453 28.2654 74.3453C29.3138 74.3453 30.3265 74.1062 31.2549 73.6451C32.5588 74.9552 34.2956 75.7058 36.1242 75.7058C37.9487 75.7058 39.6923 74.9513 40.9986 73.638C41.7987 73.9617 42.6509 74.1294 43.5166 74.1294C44.1621 74.1294 44.8012 74.0322 45.4168 73.8496V86.8031ZM48.5832 73.8499C49.1988 74.0326 49.8377 74.1298 50.4832 74.1298C51.3489 74.1294 52.2013 73.9619 53.0012 73.6382C54.3073 74.9515 56.0507 75.706 57.8754 75.706C59.7042 75.706 61.4414 74.9552 62.7451 73.6453C63.6731 74.106 64.6862 74.3455 65.7345 74.3455C69.6449 74.3455 72.8266 70.9609 72.8266 66.8007C72.8266 62.7509 69.8118 59.4363 66.0446 59.263C65.183 55.1244 61.6732 51.9931 57.5596 51.9931C56.3744 51.9931 55.2238 52.2453 54.1624 52.7255V43.746H76.1406V85.6333H52.3169C50.9416 85.6333 49.6602 86.0654 48.583 86.806V73.8499H48.5832ZM76.1404 89.0015V91.2898H48.9355C49.5322 89.939 50.8238 89.0015 52.3171 89.0015H76.1404ZM82.0479 96.6314H48.5828V94.658H77.7236C78.598 94.658 79.3067 93.9039 79.3067 92.9738V51.2878H82.0479V96.6314Z" fill="#4B5A8A"/>
<path d="M46.9999 43.762C46.1254 43.762 45.4167 44.5161 45.4167 45.4461V55.8487C45.4167 56.7788 46.1254 57.5329 46.9999 57.5329C47.8743 57.5329 48.583 56.7788 48.583 55.8487V45.4461C48.583 44.5161 47.8745 43.762 46.9999 43.762Z" fill="#4B5A8A"/>
</svg>
