<svg width="67" height="68" viewBox="0 0 67 68" fill="none" xmlns="http://www.w3.org/2000/svg">
<path fill-rule="evenodd" clip-rule="evenodd" d="M65.4638 31.1389L36.4581 1.9938C34.7879 0.314892 32.0789 0.314892 30.4073 1.9938L24.3848 8.04688L32.0247 15.7244C33.8003 15.1214 35.8363 15.526 37.2519 16.9478C38.6748 18.379 39.0738 20.4422 38.4586 22.233L45.823 29.6322C47.6052 29.0147 49.6599 29.4135 51.0828 30.8462C53.071 32.8433 53.071 36.0812 51.0828 38.0798C49.0931 40.0791 45.8714 40.0791 43.881 38.0798C42.3859 36.576 42.0157 34.3674 42.7741 32.5164L35.9057 25.6155V43.7754C36.3901 44.0166 36.8477 44.3377 37.2519 44.7424C39.2401 46.7402 39.2401 49.9774 37.2519 51.9782C35.2637 53.9753 32.0398 53.9753 30.0523 51.9782C28.0641 49.9774 28.0641 46.7402 30.0523 44.7424C30.544 44.2491 31.113 43.8757 31.7203 43.6258V25.298C31.113 25.0488 30.5454 24.6783 30.0523 24.1821C28.5463 22.6696 28.1841 20.448 28.957 18.5896L21.4249 11.0204L1.5353 31.0038C-0.134814 32.6842 -0.134814 35.4063 1.5353 37.0852L30.5425 66.2304C32.2126 67.9085 34.921 67.9085 36.5933 66.2304L65.4638 37.2203C67.1354 35.5414 67.1354 32.8178 65.4638 31.1389Z" fill="black"/>
</svg>
