<svg width="230" height="215" viewBox="0 0 230 215" fill="none" xmlns="http://www.w3.org/2000/svg">
<path d="M57.9563 1.44321C54.258 4.64546 53.4461 9.74202 55.9267 13.6659C56.6935 14.8386 57.2798 15.8759 57.2798 16.0112C57.2798 16.1014 55.5659 17.4996 53.4461 19.1233C51.3263 20.7469 49.6124 21.9196 49.6124 21.7392C49.6124 21.5588 49.9281 20.6116 50.289 19.6194C51.5067 16.2367 50.8753 12.809 48.4849 9.65181L47.2671 8.02814L45.914 9.33609C44.11 11.0049 42.3961 14.6582 42.3961 16.8231C42.3961 19.0331 43.4785 21.5137 45.1924 23.3178L46.5906 24.761L42.8471 28.5045C40.8175 30.5792 39.284 31.8421 39.4644 31.346C40.8626 27.377 39.9155 22.7766 37.074 20.0253C35.5405 18.5369 35.4503 18.4918 34.5934 19.2586C33.3305 20.4312 32.1579 22.957 31.7971 25.2572C31.346 28.1888 32.4285 30.94 34.864 33.1501L36.8034 34.9541L33.8718 38.878L30.895 42.8019L30.6244 39.3291C30.3087 34.6384 29.0458 32.5637 25.3925 30.489C24.5807 30.038 22.5511 33.8717 22.2354 36.4876C21.8746 39.735 23.6336 43.298 26.4299 44.9217C27.5574 45.5983 28.3693 46.365 28.2791 46.6356C28.1438 46.9513 27.0162 48.9809 25.7534 51.1909C23.5434 55.0697 23.4531 55.1599 23.4531 53.5363C23.4531 49.6124 20.8823 45.2825 17.7252 43.9295C16.9133 43.5687 16.1917 43.298 16.0564 43.298C15.5152 43.298 14.4327 47.267 14.4327 49.2966C14.4778 53.4009 17.0486 57.0993 20.4764 58.0014C21.1078 58.1367 21.6491 58.4975 21.6491 58.8132C21.6491 59.3995 18.3115 67.5179 17.9056 67.969C17.7252 68.1043 17.5899 67.4728 17.5899 66.5708C17.5899 64.4059 15.6505 60.7977 13.8013 59.3995C12.7188 58.5426 9.92249 57.2797 9.20085 57.2797C8.84003 57.2797 8.1184 60.482 8.1184 62.3312C8.1184 66.3904 10.5539 69.8633 14.117 70.8555C15.1543 71.1712 16.1466 71.532 16.3721 71.7124C16.5525 71.8477 16.1466 74.1931 15.4701 76.8541L14.2523 81.7251L13.6209 79.7857C12.3129 75.8167 8.97534 72.7949 5.63778 72.5243L3.83369 72.389L3.69838 74.8696C3.60818 76.2227 3.78859 78.117 4.0592 79.019C5.05145 82.4017 8.65962 85.2431 11.9521 85.2431C12.809 85.2431 13.5307 85.4235 13.5307 85.6039C13.5307 86.4609 12.5835 93.6321 12.3129 94.7146C12.0423 95.8421 12.0423 95.8421 11.6815 94.4439C11.05 92.1888 7.93799 89.0317 5.54757 88.2198C4.37491 87.8139 2.88654 87.4982 2.16491 87.4982C0.902044 87.4982 0.902044 87.5433 0.902044 90.069C0.947146 95.346 4.28471 98.9993 9.65187 99.5405L12.1776 99.8111V104.772V109.734L10.7794 107.659C9.20085 105.268 7.39676 104.006 4.46512 103.239C1.62368 102.472 0 102.968 0 104.547C0 110.14 4.96124 114.65 10.3735 113.928C11.5913 113.748 12.6286 113.793 12.6286 113.973C12.6286 114.154 12.809 115.552 13.0345 117.04C13.26 118.529 13.5758 120.648 13.7111 121.776L14.0268 123.805L12.5835 122.092C10.5539 119.611 8.02819 118.483 4.60042 118.438C3.06695 118.438 1.57858 118.664 1.30796 118.934C0.496124 119.746 2.1198 123.851 3.87879 125.655C6.63002 128.361 9.83228 129.082 13.8464 127.865C14.7033 127.594 14.8837 127.82 15.5152 130.21C15.9211 131.653 16.5525 133.728 16.9133 134.856C17.229 135.938 17.4546 136.93 17.3643 137.02C17.3192 137.111 16.7329 136.705 16.1015 136.118C14.2974 134.45 11.0951 133.051 9.06554 133.051C7.26146 133.051 4.0592 134.044 4.0592 134.63C4.0592 135.532 5.68288 138.464 6.90064 139.727C9.51657 142.433 13.3954 143.29 16.8231 141.846C18.8978 140.989 18.8978 140.989 19.3488 142.162C19.5744 142.748 20.4764 144.868 21.3333 146.898L22.957 150.596L20.9274 149.153C19.0331 147.8 18.5821 147.71 15.1994 147.71C12.358 147.71 11.2304 147.89 10.2833 148.521L9.06554 149.378L9.87738 151.002C12.3129 155.738 18.3115 157.542 22.7766 154.926L24.6709 153.844L27.1966 158.083C28.6399 160.428 29.7675 162.458 29.7675 162.548C29.7675 162.684 28.8654 162.233 27.7379 161.601C25.9338 160.609 25.2572 160.474 22.6413 160.654C20.3862 160.789 19.1684 161.105 17.9507 161.917C17.0035 162.548 16.2368 163.225 16.2368 163.45C16.2368 163.631 16.8682 164.578 17.5899 165.525C20.7019 169.494 26.024 170.216 30.1283 167.329L32.203 165.841L33.3756 167.374C34.0071 168.186 35.3601 169.855 36.3975 171.118C37.4799 172.335 38.2918 173.418 38.2016 173.463C38.1565 173.508 36.8485 173.237 35.315 172.832C32.7442 172.155 32.3834 172.155 30.1283 172.877C28.8203 173.283 27.0613 174.23 26.2044 174.996L24.6709 176.395L25.9789 177.748C27.7379 179.597 30.5793 180.86 33.0599 180.86C35.8111 180.86 37.2995 180.228 39.3291 178.289L41.043 176.62L44.0649 179.507C45.7787 181.085 47.4024 182.619 47.7632 182.934C48.3045 183.431 47.8083 183.476 45.1924 183.25C42.3059 183.025 41.7646 183.115 39.5997 184.197C38.2918 184.874 36.7132 186.001 36.172 186.723L35.0895 188.076L36.172 188.978C40.9979 193.037 47.1318 192.271 50.6047 187.219L51.3263 186.182L55.4306 189.113L59.4898 192L56.1522 192.226C53.4912 192.406 52.4088 192.722 50.9655 193.669C49.2516 194.796 47.3573 197.187 47.3573 198.269C47.3573 199.216 51.3714 200.705 53.9422 200.705C57.37 200.705 59.6702 199.442 61.4292 196.6C62.1959 195.383 62.8725 194.39 62.9627 194.39C63.0529 194.39 65.0825 195.473 67.518 196.736L71.938 199.126L69.4574 199.397C65.0825 199.893 61.4743 202.509 60.6625 205.801C60.3468 206.884 60.4821 207.109 62.0606 207.741C63.2333 208.237 64.6766 208.417 66.5709 208.282C70.4045 208.056 72.7499 206.478 74.2833 203.14C75.1854 201.201 75.5913 200.705 76.1776 200.975C76.5835 201.156 78.568 201.922 80.5976 202.689C84.7019 204.268 85.4687 204.764 83.845 204.764C80.1015 204.764 75.8619 207.921 74.8246 211.439C74.148 213.784 74.3735 214.01 77.5307 214.416C82.4017 215.047 86.8217 212.116 87.9493 207.515C88.4454 205.486 88.5356 205.395 89.8887 205.531L91.332 205.621L90.0691 205.125C89.0769 204.674 88.8513 204.358 89.0769 203.636C89.7083 201.742 89.8436 197.142 89.3024 195.563C88.4003 192.767 84.7019 189.339 83.4842 190.106C82.8528 190.467 81.635 194.39 81.635 196.059C81.635 198.044 82.7174 200.615 84.2509 202.238L85.4687 203.501L84.3411 203.185C81.9507 202.464 76.2227 200.164 75.9972 199.848C75.907 199.622 76.1325 198.81 76.5384 197.954C77.5307 195.924 77.8013 192.541 77.1248 190.106C76.4031 187.49 73.2911 184.197 72.2988 185.009C69.7731 187.084 69.1417 192.767 71.036 196.104C71.6223 197.142 72.0282 197.999 71.8929 197.999C71.3968 197.999 65.5335 194.887 64.6315 194.12L63.5941 193.263L64.9472 190.602C66.7062 187.129 66.7513 184.603 65.0825 181.311C63.5039 178.244 62.647 177.658 61.339 178.83C58.7682 181.13 57.7759 186.498 59.3545 189.474C59.7153 190.241 59.9859 190.963 59.8506 191.053C59.6251 191.323 52.3186 185.821 52.3186 185.37C52.3186 185.144 52.8147 184.378 53.4461 183.656C56.5131 180.003 56.6935 173.553 53.8069 170.892L52.7696 169.855L51.3714 171.208C48.6202 173.824 47.4926 177.432 48.4849 180.724C49.0261 182.483 48.981 182.619 48.3045 182.258C47.8985 182.032 46.2749 180.499 44.6512 178.83L41.7195 175.853L42.9824 174.906C46.771 172.11 48.0338 164.803 45.3277 161.285C44.6963 160.474 44.6061 160.474 42.6667 162.052C39.8703 164.397 38.6075 167.149 38.9232 170.306C39.0585 171.794 39.0134 172.651 38.7428 172.516C38.3369 172.245 33.8267 166.653 33.2403 165.705C33.0599 165.435 33.8267 164.578 34.9993 163.766C37.931 161.601 39.3742 158.534 39.1487 154.836C39.0585 153.032 38.6977 151.724 38.2467 151.273C37.6152 150.641 37.3897 150.641 35.8111 151.453C32.5187 153.122 30.6695 156.144 30.6695 159.752L30.6244 161.691L29.7675 160.654C28.7301 159.391 25.7083 154.024 25.7083 153.438C25.7083 153.212 26.2044 152.851 26.8358 152.716C29.6773 151.994 33.3756 146.853 33.3756 143.605C33.3756 142.297 32.5638 139.366 32.203 139.366C32.1128 139.366 30.9401 139.862 29.6321 140.448C26.2495 141.937 24.3101 144.733 23.814 148.837C23.7238 149.694 23.2276 148.927 21.7393 145.635C20.7019 143.245 19.845 141.08 19.845 140.809C19.845 140.584 20.5215 140.223 21.2882 140.087C25.0768 139.321 28.8654 134.585 28.8654 130.616C28.8654 127.729 28.5497 127.504 25.6632 128.361C21.8295 129.488 18.9429 132.781 18.9429 136.073C18.9429 137.922 18.2664 136.84 17.229 133.277C15.5152 127.278 15.5152 127.323 17.4546 126.963C22.3256 126.061 26.1593 121.911 26.1593 117.491V115.913H23.9042C21.4686 115.913 18.8527 116.995 17.4546 118.529C17.0035 119.025 16.2819 120.378 15.8309 121.595C14.8837 124.076 14.7935 123.941 13.9817 118.303C13.666 116.273 13.5307 114.289 13.7111 113.883C13.8464 113.432 14.568 113.206 15.876 113.206C19.9352 113.206 23.8591 109.959 24.8062 105.765C25.0768 104.592 25.167 103.509 25.0768 103.374C24.9415 103.284 23.7689 103.149 22.4609 103.149C18.7625 103.104 15.6505 105.043 13.8464 108.471C13.1247 109.779 13.1247 109.643 13.0796 104.727V99.6758H15.6956C20.7019 99.6307 25.167 96.2931 25.7534 92.0535C25.8887 91.1966 25.6632 90.8809 24.8062 90.6103C21.0627 89.5729 17.3643 90.7456 14.7033 93.8576L13.0345 95.8421L13.3052 93.3615C13.666 90.2043 14.3876 86.0549 14.568 85.8294C14.6582 85.7843 15.6956 85.8745 16.9133 86.1C21.1529 86.9119 25.6632 84.747 27.5574 81.0937C28.5948 79.1092 28.4595 78.8386 26.2044 78.0719C22.8668 76.9894 19.3939 77.8012 16.8231 80.2819L15.1994 81.8604L15.5152 80.0564C15.6956 79.0641 16.2368 76.8541 16.7329 75.1853C17.4997 72.6596 17.7703 72.1635 18.4017 72.389C18.8076 72.5694 20.2509 72.9302 21.5589 73.2008C23.5885 73.6518 24.3101 73.6067 26.2946 72.8851C28.8203 72.0282 30.8048 70.4045 31.8422 68.4651C32.4736 67.2473 32.4285 67.2022 30.7146 66.3002C29.4517 65.6687 28.0085 65.3981 26.024 65.3981C23.5434 65.3981 22.8668 65.5785 21.2882 66.7512C20.2509 67.4728 19.3037 68.1043 19.2135 68.1043C18.988 68.1043 20.5666 63.6391 21.8295 60.7526C22.2354 59.8506 22.6413 59.0838 22.7766 59.0838C22.8668 59.0838 23.814 59.5349 24.8513 60.0761C27.2417 61.2938 31.5715 61.384 33.8267 60.2114C35.2699 59.4446 37.8859 56.964 37.8859 56.2875C37.8859 55.5659 33.7816 53.6265 31.7069 53.3559C29.5419 53.1303 28.9556 53.2656 24.6258 55.3854C24.2199 55.6109 27.1064 50.1987 28.5046 48.1691L29.3615 46.9062L31.7069 48.2142C33.0148 48.9358 34.8189 49.6575 35.766 49.7928C38.1565 50.2438 41.8999 49.0711 43.5236 47.3573L44.8316 46.0042L43.7942 44.9217C43.2079 44.3354 41.7195 43.3883 40.4567 42.847C37.8859 41.7195 35.315 41.8097 32.8344 43.1176L31.3911 43.8844L32.2481 42.5764C33.4658 40.637 36.9387 36.1719 37.4348 35.8562C37.6603 35.7209 38.382 36.1268 39.1036 36.8033C40.9979 38.5623 42.7118 39.3291 45.5983 39.5546C47.673 39.7801 48.5751 39.5997 50.289 38.7878C51.4616 38.2466 52.499 37.4799 52.6343 37.119C52.95 36.3523 50.9655 34.1874 48.7555 32.8343C46.9965 31.7519 42.8471 31.5264 41.1332 32.4284C40.592 32.699 40.141 32.8343 40.141 32.6539C40.141 32.2029 46.5455 25.7082 46.9965 25.7082C47.222 25.7082 47.9887 26.3847 48.7555 27.2417C50.6949 29.4517 53.4461 30.6694 56.5131 30.6694C59.129 30.6694 62.241 29.5419 62.241 28.6398C62.241 28.3241 61.4292 27.1515 60.437 26.0239C58.1818 23.4982 55.4757 22.3255 52.4539 22.6863L50.289 22.9119L52.1381 21.2431C53.1755 20.341 54.9345 18.9429 56.062 18.131L58.1367 16.6427L58.8133 17.9055C59.7604 19.7096 62.1959 21.9647 64.1353 22.7314C66.2551 23.6335 69.5927 23.6335 71.2615 22.7766C72.7048 22.0098 72.7048 21.649 70.9909 18.8978C69.3672 16.2818 67.4729 15.1994 64.0902 14.9288L61.1135 14.6582L63.3686 13.2149C65.4884 11.9069 65.8492 11.8167 68.5554 12.0422C74.1029 12.4933 78.4778 9.47141 80.0113 4.19444C80.3721 2.75117 80.5525 1.44321 80.3721 1.2628C80.1466 1.03729 78.974 0.766678 77.7111 0.586273C72.4792 -6.10352e-05 67.6082 3.2924 66.0747 8.47916C65.308 10.9598 64.9923 11.4108 63.3235 12.403C62.241 13.0345 61.2939 13.5306 61.2037 13.5306C61.0684 13.5306 61.5194 12.2677 62.1057 10.7343C63.0078 8.56935 63.1882 7.48691 63.0078 5.77303C62.6921 3.33751 61.0684 -6.10352e-05 60.1663 -6.10352e-05C59.8055 -6.10352e-05 58.8584 0.631378 57.9563 1.44321Z" fill="black"/>
<path d="M168.186 1.89426C166.743 4.51018 166.698 8.84 168.141 11.5912C168.682 12.6737 169.043 13.5306 168.863 13.5306C168.727 13.5306 167.78 13.0345 166.698 12.4031C165.029 11.4108 164.713 10.9598 163.946 8.47917C162.413 3.29242 157.542 -4.57764e-05 152.31 0.586288C151.047 0.766693 149.875 1.03731 149.649 1.26282C149.063 1.84915 150.641 6.40446 152.13 8.29877C152.941 9.33612 154.52 10.5088 155.963 11.1853C157.993 12.0873 158.85 12.2227 161.376 12.0423C164.172 11.8618 164.578 11.952 166.653 13.26L168.908 14.6582L166.202 14.8837C162.954 15.1543 160.789 16.327 159.12 18.7174C157.271 21.5137 157.226 22.0549 158.985 22.8217C163.27 24.5807 168.908 22.3255 171.208 17.9055L171.884 16.6427L173.779 18.0408C174.861 18.8076 176.665 20.2057 177.883 21.198L180.003 22.957L177.748 22.6864C174.591 22.3255 171.884 23.408 169.584 26.0239C168.592 27.1515 167.78 28.279 167.78 28.5045C167.78 29.4968 170.802 30.6695 173.373 30.6695C176.62 30.6695 179.326 29.4968 181.266 27.2417C182.032 26.3848 182.799 25.7082 183.025 25.7082C183.476 25.7082 189.88 32.2029 189.88 32.654C189.88 32.8344 189.429 32.6991 188.888 32.4285C187.174 31.5264 183.025 31.7519 181.266 32.8344C179.056 34.1874 177.071 36.3523 177.387 37.1191C177.522 37.4799 178.514 38.2015 179.597 38.7428C183.07 40.4115 187.084 39.8252 190.557 37.2093L192.586 35.6758L194.706 38.3368C195.924 39.7801 197.232 41.5842 197.683 42.3509L198.495 43.704L196.375 42.7569C194.796 42.0803 193.759 41.8999 192.271 42.1254C190.015 42.4411 187.309 43.704 186.092 45.0571C185.235 46.0042 185.235 46.0493 186.543 47.4024C188.392 49.3418 191.91 50.2889 194.887 49.6575C196.104 49.3869 197.908 48.6652 198.81 48.0338C200.118 47.1318 200.569 47.0416 201.02 47.4926C201.607 48.0789 205.666 55.2051 205.486 55.3404C205.44 55.3855 204.403 54.9344 203.185 54.3481C199.848 52.6342 196.149 53.0853 192.857 55.5659C192.045 56.1973 192.045 56.2875 192.812 57.4602C195.067 60.8428 201.201 62.1508 205.215 60.031C206.252 59.4898 207.29 59.1741 207.47 59.3996C207.876 59.8506 211.078 67.7435 211.078 68.3298C211.078 68.5553 210.537 68.1945 209.86 67.5631C207.921 65.8041 206.839 65.3982 203.862 65.3982C202.013 65.3982 200.569 65.6688 199.307 66.3002C197.593 67.2023 197.548 67.2473 198.179 68.4651C199.216 70.4947 201.246 72.0282 203.817 72.8851C206.207 73.6519 208.823 73.4715 211.619 72.389C212.251 72.1635 212.521 72.6596 213.288 75.1853C213.784 76.8541 214.326 79.0641 214.506 80.0113L214.822 81.8154L213.198 80.2368C210.672 77.8013 207.109 76.9894 203.817 78.0719C201.562 78.8386 201.426 79.1092 202.464 81.1388C204.358 84.7921 209.184 87.0472 213.288 86.1001C214.371 85.8746 215.363 85.7393 215.453 85.8746C215.679 86.1001 216.942 93.993 216.942 95.1205C216.942 95.4813 216.175 94.895 215.273 93.8125C212.567 90.6554 209.364 89.618 205.576 90.6554C203.997 91.1064 203.952 91.1966 204.358 92.5497C205.576 96.8344 209.545 99.6758 214.326 99.6758H216.942V104.727C216.896 109.643 216.896 109.779 216.175 108.471C214.235 104.727 210.221 102.517 206.478 103.104L204.719 103.419L205.035 105.269C205.756 109.598 209.319 112.801 213.829 113.116C216.896 113.342 216.851 113.297 215.994 118.574C215.137 124.166 215.183 124.076 214.1 121.325C212.882 118.348 210.402 116.409 207.154 115.913C204.313 115.462 203.862 115.687 203.862 117.536C203.862 121.956 207.696 126.061 212.567 126.963C214.506 127.323 214.506 127.278 212.792 133.277C211.755 136.84 211.078 137.922 211.078 136.073C211.078 132.781 208.192 129.488 204.358 128.361C201.471 127.504 201.156 127.729 201.156 130.616C201.156 134.585 204.944 139.321 208.733 140.087C209.5 140.223 210.176 140.584 210.176 140.809C210.176 141.08 209.319 143.245 208.282 145.635C206.794 148.927 206.297 149.694 206.207 148.837C205.891 146.447 204.674 143.515 203.501 142.388C202.554 141.486 198.54 139.366 197.773 139.366C197.457 139.366 196.646 142.343 196.646 143.605C196.646 146.853 200.344 151.994 203.185 152.716C203.817 152.851 204.313 153.212 204.313 153.483C204.313 154.024 200.344 160.925 199.803 161.24C199.622 161.331 199.352 160.338 199.261 158.94C198.991 155.873 197.187 153.122 194.436 151.588C192.677 150.596 192.451 150.596 191.774 151.273C191.323 151.724 191.008 153.032 190.872 154.836C190.647 158.534 192.09 161.601 195.022 163.766C196.149 164.578 196.961 165.435 196.781 165.705C196.24 166.653 192.18 171.704 191.504 172.245C190.918 172.741 190.872 172.471 191.098 170.351C191.414 167.104 190.241 164.443 187.445 162.142C185.415 160.519 185.325 160.474 184.693 161.285C181.987 164.803 183.25 172.11 187.039 174.906L188.302 175.853L185.37 178.83C183.746 180.499 182.078 182.032 181.672 182.258C180.95 182.619 180.905 182.574 181.311 181.536C182.574 178.244 181.446 173.869 178.65 171.208C177.432 170.035 177.206 169.99 176.53 170.531C175.267 171.569 174.094 174.591 174.094 176.846C174.094 179.236 175.042 181.852 176.62 183.701C177.206 184.423 177.703 185.145 177.703 185.37C177.703 185.821 170.351 191.278 170.125 191.008C170.035 190.918 170.306 190.196 170.757 189.384C172.29 186.362 171.298 181.221 168.682 178.83C167.374 177.658 166.517 178.244 164.984 181.311C163.27 184.603 163.315 187.129 165.074 190.602L166.427 193.263L165.39 194.12C164.488 194.841 158.624 197.999 158.128 197.999C157.993 197.999 158.444 197.051 159.075 195.924C160.564 193.263 160.654 189.97 159.346 187.355C157.722 184.288 157.316 184.197 155.287 186.272C152.355 189.159 151.588 194.21 153.483 197.954C153.889 198.81 154.114 199.622 154.024 199.848C153.798 200.164 148.07 202.464 145.68 203.185L144.552 203.501L145.77 202.238C147.349 200.524 148.386 197.999 148.341 195.879C148.341 193.939 147.033 190.241 146.311 190.016C146.041 189.925 144.958 190.467 143.921 191.233C141.215 193.218 140.087 195.879 140.403 199.758C140.538 201.381 140.764 203.14 140.944 203.636C141.17 204.358 140.944 204.674 139.952 205.08L138.689 205.576L140.132 205.621C141.44 205.666 141.576 205.846 142.342 208.192C143.786 212.837 148.476 215.408 153.347 214.235C155.918 213.604 156.054 213.243 154.746 210.402C153.347 207.335 149.604 204.764 146.537 204.764C144.552 204.764 145.094 204.358 149.424 202.689C151.453 201.923 153.483 201.111 153.889 200.975C154.475 200.705 154.836 201.111 155.603 202.779C156.099 203.997 156.865 205.35 157.316 205.846C159.391 208.147 164.758 209.094 168.051 207.696C169.494 207.109 169.629 206.884 169.359 205.801C168.547 202.509 164.939 199.893 160.564 199.397L158.083 199.126L162.503 196.736C164.939 195.473 166.968 194.39 167.058 194.39C167.149 194.39 167.825 195.383 168.592 196.6C170.351 199.487 172.651 200.705 176.214 200.705C178.785 200.705 182.123 199.352 182.529 198.224C182.799 197.367 180.905 194.887 179.056 193.669C177.612 192.722 176.53 192.406 173.869 192.226L170.531 192L174.591 189.113L178.695 186.182L179.416 187.219C182.303 191.414 186.903 192.722 191.323 190.557C192.135 190.196 193.308 189.429 193.894 188.933L194.977 188.031L193.082 186.092C190.692 183.656 188.257 182.889 184.378 183.295C182.844 183.431 181.762 183.386 181.987 183.205C182.258 183.025 183.927 181.446 185.731 179.732L188.978 176.62L190.692 178.289C192.722 180.228 194.21 180.86 197.006 180.86C199.577 180.86 202.283 179.642 204.087 177.748L205.395 176.304L204.087 175.177C200.84 172.516 197.683 171.749 194.39 172.922C193.263 173.328 192.226 173.643 192 173.643C191.729 173.643 196.149 167.735 197.548 166.292C197.728 166.066 198.81 166.562 199.938 167.374C202.87 169.404 205.982 169.674 209.094 168.096C211.123 167.059 213.784 164.397 213.784 163.405C213.784 163.225 213.018 162.548 212.07 161.917C209.545 160.293 205.26 160.113 202.419 161.601C201.201 162.187 200.254 162.639 200.254 162.548C200.254 162.458 201.381 160.428 202.825 158.083L205.35 153.844L207.245 154.926C211.71 157.542 217.708 155.738 220.144 151.002L221.001 149.333L219.377 148.386C218.069 147.529 217.302 147.394 214.461 147.574C211.574 147.71 210.853 147.935 209.094 149.198L207.019 150.641L207.65 149.153C207.966 148.386 208.823 146.402 209.545 144.778C210.221 143.154 210.898 141.711 211.078 141.486C211.259 141.305 212.116 141.44 213.018 141.846C217.347 143.65 222.669 141.801 224.744 137.742C226.187 134.856 226.142 134.45 224.428 133.728C221.046 132.285 216.716 133.322 213.784 136.299C213.018 137.02 212.431 137.517 212.431 137.336C212.431 137.201 212.973 135.216 213.604 132.916C214.28 130.616 214.867 128.496 214.957 128.135C215.092 127.729 215.498 127.639 216.175 127.82C220.234 129.037 223.166 128.406 225.872 125.835C227.901 123.851 229.57 119.791 228.713 118.934C228.443 118.664 226.954 118.438 225.421 118.438C221.993 118.438 219.512 119.566 217.393 122.092L215.994 123.806L216.265 122.227C216.581 120.288 217.393 114.469 217.393 113.973C217.393 113.793 218.475 113.793 219.783 113.928C224.97 114.56 229.254 110.996 229.886 105.539C230.111 103.419 230.111 103.329 228.848 103.013C227.27 102.607 223.977 103.464 221.993 104.772C221.181 105.314 219.918 106.667 219.152 107.794L217.798 109.779L217.934 104.637L218.069 99.4503L219.738 99.5856C221.767 99.766 225.06 98.3679 226.684 96.654C228.352 94.8499 229.119 92.7301 229.119 89.9338C229.119 87.5884 229.074 87.4982 227.901 87.4982C225.195 87.4982 223.03 88.4905 220.91 90.7005C219.738 91.8732 218.655 93.4066 218.475 94.0381C217.979 96.0226 217.528 95.2558 217.212 91.8732C217.032 90.1142 216.806 87.8591 216.626 86.9119L216.355 85.2431H218.024C221.362 85.2431 224.97 82.4017 225.962 79.019C226.233 78.117 226.413 76.2227 226.323 74.8696L226.187 72.389L224.383 72.5243C221.046 72.7949 217.708 75.8168 216.4 79.7858L215.769 81.7252L214.551 76.8541C213.875 74.1931 213.469 71.8478 213.649 71.7125C213.875 71.5321 214.867 71.1712 215.859 70.9006C218.34 70.179 219.828 68.9612 220.956 66.6159C221.993 64.451 222.218 60.9781 221.407 58.6779C221.136 57.9112 220.865 57.2798 220.82 57.2798C220.189 57.2798 217.347 58.4975 216.355 59.1741C214.551 60.482 212.431 64.3608 212.431 66.4806C212.431 68.7808 212.116 68.42 210.266 63.9098C208.056 58.5877 208.056 58.3622 209.59 58.0014C211.574 57.5053 213.784 55.5208 214.731 53.4912C215.769 51.191 215.814 47.5377 214.867 45.1022C214.235 43.5687 213.965 43.2981 213.153 43.5687C209.951 44.5158 206.568 49.432 206.568 53.1755V55.2051L204.268 51.191C203.005 48.981 201.877 46.9514 201.742 46.6357C201.652 46.365 202.464 45.5983 203.546 44.9218C205.846 43.6138 207.921 40.0958 207.921 37.6603C207.921 35.9013 206.794 32.6089 205.756 31.2107L204.989 30.2184L203.321 31.346C200.705 33.105 199.622 35.315 199.352 39.3742L199.126 42.8922L196.871 39.8703C192.992 34.6836 193.082 35.2248 195.428 32.9246C199.216 29.0909 199.307 23.5433 195.608 19.5292L194.706 18.537L193.443 19.439C192.767 19.9351 191.639 21.4235 190.963 22.7766C189.97 24.8513 189.79 25.6631 189.97 27.8731C190.106 29.2713 190.376 30.8499 190.557 31.346C190.737 31.8421 189.204 30.5793 187.129 28.5497L183.385 24.8062L184.784 23.3629C186.543 21.5137 187.625 19.0782 187.625 16.8231C187.625 14.6582 185.911 11.0049 184.107 9.29102L182.754 8.02815L181.356 9.92244C178.92 13.3051 178.469 17.4545 180.183 20.747C180.589 21.5137 180.77 22.1 180.679 22.1C180.544 22.1 178.65 20.747 176.44 19.0331L172.471 16.0112L173.824 14.1169C175.538 11.6814 175.899 8.11835 174.771 5.18671C174.049 3.24731 170.937 -4.57764e-05 169.81 -4.57764e-05C169.539 -4.57764e-05 168.817 0.856903 168.186 1.89426Z" fill="black"/>
<path d="M61.3842 153.798C60.843 155.603 60.843 155.603 58.4977 155.603L56.1523 155.648L57.9113 157.136C59.7154 158.715 59.8507 159.391 58.8134 162.097C58.5428 162.819 58.7232 162.774 60.2566 161.736C61.2038 161.105 62.1509 160.564 62.3765 160.564C62.602 160.564 63.504 161.105 64.361 161.782L66.0297 163.044L65.714 161.917C64.7669 158.67 64.812 158.489 66.2552 157.452C68.1495 156.099 68.0142 155.603 65.714 155.603C63.8197 155.603 63.7295 155.512 63.1432 153.798C62.8275 152.806 62.4216 151.994 62.2411 151.994C62.0607 151.994 61.6999 152.806 61.3842 153.798Z" fill="black"/>
<path d="M166.878 153.798C166.292 155.512 166.202 155.603 164.307 155.603C162.007 155.603 161.872 156.099 163.766 157.452C165.209 158.489 165.255 158.67 164.307 161.917L163.992 163.044L165.66 161.782C166.517 161.105 167.419 160.564 167.645 160.564C167.87 160.564 168.818 161.105 169.765 161.736C171.298 162.774 171.479 162.819 171.208 162.097C170.171 159.391 170.306 158.67 172.11 157.091L173.869 155.603H171.524C169.178 155.603 169.178 155.603 168.637 153.798C168.321 152.806 167.961 151.994 167.78 151.994C167.6 151.994 167.194 152.806 166.878 153.798Z" fill="black"/>
<path d="M81.8605 156.55C81.7252 156.911 81.1839 158.579 80.5976 160.338L79.5152 163.495L75.2756 163.721L71.0811 163.946L74.3284 166.337C76.1325 167.69 77.5758 169.043 77.5758 169.359C77.5758 169.72 77.0345 171.433 76.4031 173.192C75.7717 174.997 75.3207 176.53 75.4109 176.62C75.5913 176.756 77.0345 175.808 81.0937 172.922C82.0409 172.2 82.2213 172.245 84.4764 173.779C85.7393 174.681 87.3629 175.853 88.0395 176.35L89.2572 177.297L88.6258 175.087C88.2199 173.824 87.6336 171.975 87.2727 170.937C86.9119 169.9 86.5962 168.998 86.5962 168.953C86.5962 168.908 88.1297 167.78 90.024 166.427L93.4968 163.946L89.167 163.811L84.8823 163.676L83.6646 159.977C82.2664 155.828 82.2213 155.648 81.8605 156.55Z" fill="black"/>
<path d="M112.981 161.556C112.034 164.623 110.996 167.87 110.636 168.772L109.959 170.486L102.247 170.576L94.489 170.712L100.713 175.222C105.81 178.875 106.937 179.867 106.757 180.634C106.667 181.13 105.629 184.378 104.502 187.851C103.374 191.323 102.517 194.255 102.607 194.3C102.698 194.39 104.953 192.857 107.659 190.872C115.146 185.37 114.785 185.55 116.273 186.497C116.95 186.949 119.656 188.888 122.272 190.827C124.888 192.812 127.188 194.39 127.323 194.39C127.639 194.39 127.278 193.263 124.707 185.19L122.994 179.867L124.076 179.011C124.662 178.56 127.504 176.485 130.345 174.455L135.532 170.712L127.865 170.576C122.452 170.486 120.152 170.306 119.882 169.9C119.701 169.629 118.574 166.382 117.401 162.684C116.228 159.03 115.146 156.054 115.011 156.054C114.83 156.054 113.928 158.534 112.981 161.556Z" fill="black"/>
<path d="M146.402 159.842L145.139 163.676L140.854 163.811L136.524 163.946L139.997 166.382C141.892 167.735 143.425 168.953 143.425 169.133C143.425 169.314 143.154 170.171 142.794 170.982C142.433 171.839 141.846 173.598 141.441 174.906L140.764 177.297L141.982 176.35C142.658 175.853 144.237 174.681 145.545 173.779L147.89 172.2L151.092 174.546C152.897 175.808 154.385 176.801 154.475 176.71C154.61 176.62 154.159 174.951 153.573 173.057C152.942 171.118 152.445 169.359 152.445 169.178C152.445 168.953 153.889 167.69 155.693 166.337L158.94 163.946L154.701 163.721L150.506 163.495L149.333 160.023C148.702 158.128 148.025 156.46 147.89 156.279C147.71 156.144 147.033 157.767 146.402 159.842Z" fill="black"/>
</svg>
