<svg width="191" height="179" viewBox="0 0 191 179" fill="none" xmlns="http://www.w3.org/2000/svg">
<path d="M48.129 1.20421C45.0577 3.87627 44.3835 8.12898 46.4435 11.4032C47.0802 12.3817 47.5671 13.2473 47.5671 13.3602C47.5671 13.4355 46.1439 14.6021 44.3835 15.957C42.6231 17.3118 41.1999 18.2903 41.1999 18.1398C41.1999 17.9893 41.4621 17.1989 41.7617 16.371C42.773 13.5484 42.2486 10.6881 40.2635 8.05371L39.2523 6.69886L38.1286 7.79027C36.6304 9.18275 35.2072 12.2312 35.2072 14.0376C35.2072 15.8817 36.1061 17.9516 37.5293 19.457L38.6904 20.6613L35.5817 23.785C33.8963 25.5162 32.6228 26.5699 32.7726 26.156C33.9337 22.8441 33.1472 19.0054 30.7875 16.7097C29.5141 15.4677 29.4392 15.4301 28.7276 16.0699C27.6788 17.0484 26.705 19.1559 26.4054 21.0753C26.0308 23.5215 26.9297 25.8173 28.9523 27.6614L30.5628 29.1667L28.1283 32.4409L25.6563 35.7152L25.4316 32.8173C25.1694 28.9033 24.1207 27.1721 21.0868 25.4409C20.4127 25.0646 18.7272 28.2635 18.465 30.4463C18.1654 33.156 19.6261 36.1291 21.9483 37.484C22.8847 38.0485 23.5588 38.6883 23.4839 38.9141C23.3716 39.1775 22.4352 40.8711 21.3865 42.7152C19.5512 45.9518 19.4763 46.027 19.4763 44.6722C19.4763 41.398 17.3414 37.7851 14.7196 36.656C14.0454 36.3549 13.4461 36.1291 13.3338 36.1291C12.8843 36.1291 11.9854 39.441 11.9854 41.1345C12.0229 44.5593 14.1578 47.6453 17.0043 48.398C17.5287 48.5109 17.9781 48.812 17.9781 49.0755C17.9781 49.5647 15.2065 56.3389 14.8694 56.7153C14.7196 56.8282 14.6072 56.3013 14.6072 55.5486C14.6072 53.7421 12.9967 50.7314 11.4611 49.5647C10.5622 48.8496 8.23998 47.7959 7.64071 47.7959C7.34107 47.7959 6.7418 50.4679 6.7418 52.011C6.7418 55.3981 8.76434 58.2959 11.7232 59.1239C12.5847 59.3873 13.4087 59.6884 13.596 59.839C13.7458 59.9519 13.4087 61.9089 12.8469 64.1293L11.8356 68.1938L11.3112 66.5756C10.2251 63.2637 7.45343 60.7422 4.6818 60.5164L3.18363 60.4035L3.07126 62.4734C2.99635 63.6024 3.14617 65.1831 3.3709 65.9358C4.1949 68.7584 7.19125 71.1293 9.92543 71.1293C10.6371 71.1293 11.2363 71.2799 11.2363 71.4304C11.2363 72.1455 10.4498 78.1294 10.2251 79.0326C10.0003 79.9735 10.0003 79.9735 9.7007 78.8068C9.17634 76.9251 6.59198 74.2907 4.6069 73.6132C3.63308 73.2745 2.39708 73.0111 1.79781 73.0111C0.749089 73.0111 0.749089 73.0487 0.749089 75.1562C0.786543 79.5595 3.55817 82.6079 8.01525 83.0595L10.1127 83.2853V87.4251V91.5649L8.95161 89.8338C7.64071 87.8391 6.14253 86.7853 3.70799 86.1456C1.34836 85.5058 0 85.9198 0 87.237C0 91.9037 4.11999 95.6671 8.61452 95.065C9.62579 94.9144 10.4872 94.9521 10.4872 95.1026C10.4872 95.2531 10.6371 96.4198 10.8243 97.6618C11.0116 98.9037 11.2738 100.673 11.3861 101.613L11.6483 103.307L10.4498 101.877C8.76434 99.8069 6.66689 98.8661 3.82035 98.8284C2.5469 98.8284 1.31091 99.0166 1.08618 99.2424C0.411999 99.9198 1.76036 103.345 3.22108 104.85C5.5058 107.108 8.16507 107.71 11.4985 106.694C12.2101 106.468 12.36 106.656 12.8843 108.651C13.2214 109.855 13.7458 111.587 14.0454 112.527C14.3076 113.431 14.4949 114.259 14.42 114.334C14.3825 114.409 13.8956 114.07 13.3712 113.581C11.8731 112.189 9.21379 111.022 7.52834 111.022C6.03016 111.022 3.3709 111.85 3.3709 112.339C3.3709 113.092 4.71926 115.538 5.73053 116.592C7.90289 118.85 11.124 119.565 13.9705 118.361C15.6934 117.646 15.6934 117.646 16.068 118.624C16.2552 119.113 17.0043 120.882 17.7159 122.576L19.0643 125.662L17.3789 124.458C15.8058 123.329 15.4312 123.253 12.6221 123.253C10.2625 123.253 9.32615 123.404 8.53961 123.931L7.52834 124.646L8.20252 126.001C10.2251 129.952 15.2065 131.458 18.9145 129.275L20.4876 128.372L22.585 131.909C23.7836 133.866 24.7199 135.56 24.7199 135.635C24.7199 135.748 23.9708 135.372 23.0345 134.845C21.5363 134.017 20.9745 133.904 18.8021 134.054C16.9294 134.167 15.9181 134.431 14.9069 135.108C14.1203 135.635 13.4836 136.2 13.4836 136.388C13.4836 136.538 14.008 137.329 14.6072 138.119C17.1916 141.431 21.6112 142.033 25.0196 139.624L26.7425 138.382L27.7163 139.662C28.2406 140.339 29.3643 141.732 30.2257 142.786C31.1246 143.802 31.7988 144.705 31.7239 144.743C31.6865 144.78 30.6003 144.555 29.3268 144.216C27.1919 143.651 26.8923 143.651 25.0196 144.253C23.9334 144.592 22.4727 145.382 21.761 146.022L20.4876 147.189L21.5738 148.318C23.0345 149.861 25.3941 150.915 27.4541 150.915C29.7388 150.915 30.9748 150.388 32.6603 148.77L34.0835 147.377L36.593 149.786C38.0163 151.103 39.3646 152.383 39.6642 152.646C40.1137 153.06 39.7017 153.098 37.5293 152.909C35.1323 152.721 34.6828 152.796 32.885 153.7C31.7988 154.264 30.4879 155.205 30.0385 155.807L29.1396 156.936L30.0385 157.689C34.0461 161.076 39.1399 160.436 42.0239 156.221L42.6231 155.356L46.0315 157.802L49.4024 160.211L46.6308 160.399C44.421 160.549 43.5221 160.813 42.3235 161.603C40.9002 162.544 39.3272 164.538 39.3272 165.442C39.3272 166.232 42.6606 167.474 44.7955 167.474C47.642 167.474 49.5522 166.42 51.0129 164.049C51.6497 163.033 52.2115 162.205 52.2864 162.205C52.3613 162.205 54.0468 163.108 56.0693 164.162L59.7398 166.157L57.6798 166.383C54.0468 166.797 51.0504 168.979 50.3762 171.727C50.114 172.63 50.2264 172.818 51.5373 173.345C52.5111 173.759 53.7097 173.91 55.2827 173.797C58.4664 173.608 60.414 172.291 61.6875 169.506C62.4365 167.888 62.7736 167.474 63.2605 167.7C63.5976 167.85 65.2456 168.49 66.9311 169.13C70.3394 170.447 70.9762 170.861 69.6278 170.861C66.5191 170.861 62.9984 173.496 62.1369 176.431C61.5751 178.388 61.7624 178.576 64.3842 178.915C68.4293 179.442 72.0998 176.996 73.0362 173.157C73.4482 171.463 73.5231 171.388 74.6467 171.501L75.8452 171.576L74.7965 171.162C73.9725 170.786 73.7852 170.522 73.9725 169.92C74.4969 168.34 74.6092 164.501 74.1598 163.184C73.4107 160.85 70.3394 157.99 69.3282 158.63C68.8038 158.931 67.7925 162.205 67.7925 163.598C67.7925 165.254 68.6914 167.399 69.9649 168.754L70.9762 169.807L70.0398 169.544C68.0547 168.942 63.298 167.022 63.1107 166.759C63.0358 166.571 63.2231 165.893 63.5602 165.178C64.3842 163.485 64.6089 160.662 64.0471 158.63C63.4478 156.447 60.8635 153.7 60.0395 154.377C57.942 156.108 57.4177 160.85 58.9907 163.635C59.4776 164.501 59.8147 165.216 59.7024 165.216C59.2904 165.216 54.4213 162.619 53.6722 161.979L52.8108 161.264L53.9344 159.044C55.3951 156.146 55.4326 154.038 54.0468 151.291C52.7358 148.732 52.0242 148.243 50.938 149.221C48.8031 151.141 47.9791 155.619 49.29 158.103C49.5897 158.743 49.8144 159.345 49.702 159.42C49.5148 159.646 43.4471 155.055 43.4471 154.678C43.4471 154.49 43.8591 153.85 44.3835 153.248C46.9304 150.2 47.0802 144.818 44.6831 142.598L43.8217 141.732L42.6606 142.861C40.3759 145.044 39.4395 148.055 40.2635 150.802C40.713 152.27 40.6755 152.383 40.1137 152.081C39.7766 151.893 38.4283 150.614 37.0799 149.221L34.6454 146.737L35.6941 145.947C38.8403 143.614 39.889 137.517 37.6417 134.581C37.1173 133.904 37.0424 133.904 35.4319 135.221C33.1097 137.178 32.061 139.474 32.3232 142.108C32.4355 143.35 32.3981 144.065 32.1734 143.952C31.8363 143.727 28.0908 139.06 27.6039 138.27C27.4541 138.044 28.0908 137.329 29.0646 136.651C31.4992 134.845 32.6977 132.286 32.5105 129.2C32.4355 127.694 32.1359 126.603 31.7614 126.226C31.237 125.7 31.0497 125.7 29.7388 126.377C27.0046 127.769 25.469 130.291 25.469 133.302L25.4316 134.92L24.7199 134.054C23.8585 133.001 21.349 128.522 21.349 128.033C21.349 127.845 21.761 127.544 22.2854 127.431C24.645 126.829 27.7163 122.538 27.7163 119.829C27.7163 118.737 27.0421 116.291 26.7425 116.291C26.6676 116.291 25.6937 116.705 24.6076 117.194C21.7985 118.436 20.1879 120.769 19.7759 124.194C19.701 124.909 19.289 124.269 18.053 121.522C17.1916 119.527 16.48 117.721 16.48 117.495C16.48 117.307 17.0418 117.006 17.6785 116.893C20.8247 116.253 23.9708 112.302 23.9708 108.99C23.9708 106.581 23.7087 106.393 21.3116 107.108C18.1279 108.049 15.7309 110.796 15.7309 113.544C15.7309 115.087 15.169 114.183 14.3076 111.21C12.8843 106.205 12.8843 106.242 14.4949 105.941C18.5399 105.189 21.7236 101.726 21.7236 98.0381V96.7209H19.8509C17.8283 96.7209 15.656 97.6241 14.4949 98.9037C14.1203 99.3177 13.5211 100.447 13.1465 101.463C12.36 103.533 12.2851 103.42 11.6109 98.7155C11.3487 97.022 11.2363 95.366 11.3861 95.0273C11.4985 94.651 12.0978 94.4628 13.184 94.4628C16.5549 94.4628 19.8134 91.7531 20.5999 88.2531C20.8247 87.2746 20.8996 86.3714 20.8247 86.2585C20.7123 86.1832 19.7385 86.0703 18.6523 86.0703C15.581 86.0327 12.9967 87.6509 11.4985 90.5112C10.8992 91.6026 10.8992 91.4897 10.8618 87.3875V83.1724H13.0341C17.1916 83.1348 20.8996 80.3498 21.3865 76.8122C21.4988 76.0971 21.3116 75.8337 20.5999 75.6079C17.4912 74.7423 14.42 75.7208 12.2101 78.3176L10.8243 79.9735L11.0491 77.9036C11.3487 75.2692 11.948 71.8068 12.0978 71.6186C12.1727 71.581 13.0341 71.6562 14.0454 71.8444C17.5661 72.5218 21.3116 70.7154 22.8847 67.667C23.7461 66.011 23.6338 65.7852 21.761 65.1454C18.9894 64.2422 16.1054 64.9196 13.9705 66.9895L12.6221 68.3067L12.8843 66.8014C13.0341 65.9734 13.4836 64.1293 13.8956 62.7368C14.5323 60.6293 14.757 60.2153 15.2814 60.4035C15.6185 60.554 16.817 60.8551 17.9032 61.0809C19.5887 61.4572 20.1879 61.4196 21.8359 60.8175C23.9334 60.1024 25.5814 58.7476 26.4428 57.1293C26.9672 56.1131 26.9297 56.0755 25.5065 55.3228C24.4577 54.7959 23.2592 54.5701 21.6112 54.5701C19.5512 54.5701 18.9894 54.7206 17.6785 55.6991C16.817 56.3013 16.0305 56.8282 15.9556 56.8282C15.7683 56.8282 17.0792 53.1024 18.1279 50.6937C18.465 49.941 18.8021 49.3013 18.9145 49.3013C18.9894 49.3013 19.7759 49.6776 20.6374 50.1292C22.6225 51.1454 26.2181 51.2206 28.0908 50.2421C29.2894 49.6023 31.4617 47.5324 31.4617 46.9679C31.4617 46.3658 28.0534 44.7475 26.3305 44.5217C24.5327 44.3335 24.0457 44.4464 20.4501 46.2152C20.113 46.4034 22.5101 41.8872 23.6712 40.1937L24.3828 39.1399L26.3305 40.2313C27.4166 40.8335 28.9148 41.4356 29.7014 41.5485C31.6865 41.9249 34.7952 40.9464 36.1435 39.5163L37.2297 38.3872L36.3683 37.484C35.8814 36.9947 34.6454 36.2044 33.5966 35.7528C31.4617 34.8119 29.3268 34.8872 27.2668 35.9786L26.0683 36.6184L26.7799 35.527C27.7912 33.9087 30.6752 30.1829 31.0872 29.9194C31.2745 29.8065 31.8737 30.1452 32.473 30.7098C34.0461 32.1775 35.4694 32.8173 37.8664 33.0055C39.5893 33.1936 40.3384 33.0431 41.7617 32.3657C42.7355 31.9141 43.597 31.2743 43.7093 30.9732C43.9715 30.3334 42.3235 28.5269 40.4882 27.3979C39.0275 26.4947 35.5817 26.3065 34.1584 27.0592C33.709 27.285 33.3344 27.3979 33.3344 27.2474C33.3344 26.871 38.653 21.4516 39.0275 21.4516C39.2148 21.4516 39.8515 22.0162 40.4882 22.7312C42.0988 24.5753 44.3835 25.5914 46.9304 25.5914C49.1028 25.5914 51.6871 24.6506 51.6871 23.8979C51.6871 23.6344 51.0129 22.6559 50.1889 21.7151C48.3162 19.6075 46.069 18.629 43.5595 18.9301L41.7617 19.1183L43.2973 17.7258C44.1588 16.9731 45.6195 15.8064 46.5559 15.129L48.2788 13.8871L48.8406 14.9408C49.6271 16.4462 51.6497 18.328 53.2602 18.9678C55.0206 19.7204 57.7922 19.7204 59.178 19.0054C60.3766 18.3656 60.3766 18.0645 58.9533 15.7688C57.6049 13.586 56.0318 12.6828 53.2228 12.457L50.7508 12.2312L52.6235 11.0268C54.3838 9.93544 54.6835 9.86017 56.9307 10.0483C61.5376 10.4247 65.1707 7.90317 66.4442 3.49992C66.7438 2.29561 66.8936 1.20421 66.7438 1.05367C66.5565 0.865497 65.5827 0.639689 64.534 0.489151C60.1893 -9.95077e-05 56.1442 2.74723 54.8708 7.07521C54.234 9.14511 53.9718 9.52146 52.586 10.3494C51.6871 10.8763 50.9006 11.2903 50.8257 11.2903C50.7133 11.2903 51.0879 10.2365 51.5748 8.95694C52.3238 7.15048 52.4737 6.24725 52.3238 4.81713C52.0617 2.78486 50.7133 -9.95077e-05 49.9642 -9.95077e-05C49.6646 -9.95077e-05 48.878 0.526785 48.129 1.20421Z" fill="black"/>
<path d="M139.668 1.58065C138.469 3.76346 138.432 7.37638 139.63 9.67209C140.08 10.5753 140.379 11.2904 140.229 11.2904C140.117 11.2904 139.33 10.8764 138.432 10.3495C137.046 9.52156 136.784 9.14521 136.147 7.07531C134.873 2.74732 130.828 -3.11421e-06 126.484 0.489247C125.435 0.639785 124.461 0.865593 124.274 1.05377C123.787 1.54302 125.098 5.34411 126.334 6.92477C127.008 7.79036 128.319 8.76886 129.517 9.33338C131.203 10.0861 131.914 10.199 134.012 10.0484C136.334 9.8979 136.671 9.97317 138.394 11.0646L140.267 12.2312L138.02 12.4194C135.323 12.6452 133.525 13.6237 132.139 15.6184C130.604 17.9517 130.566 18.4033 132.027 19.0431C135.585 20.5109 140.267 18.6291 142.177 14.9409L142.739 13.8872L144.312 15.0538C145.211 15.6936 146.709 16.8603 147.72 17.6883L149.481 19.156L147.608 18.9302C144.986 18.6291 142.739 19.5324 140.829 21.7152C140.005 22.656 139.33 23.5969 139.33 23.7851C139.33 24.613 141.84 25.5915 143.975 25.5915C146.672 25.5915 148.919 24.613 150.529 22.7313C151.166 22.0163 151.803 21.4517 151.99 21.4517C152.365 21.4517 157.683 26.8711 157.683 27.2475C157.683 27.398 157.309 27.2851 156.859 27.0593C155.436 26.3066 151.99 26.4948 150.529 27.398C148.694 28.527 147.046 30.3335 147.308 30.9733C147.421 31.2744 148.245 31.8765 149.144 32.3281C152.028 33.7206 155.361 33.2314 158.245 31.0486L159.93 29.769L161.691 31.9894C162.702 33.1937 163.788 34.6991 164.163 35.3389L164.837 36.468L163.077 35.6776C161.766 35.1131 160.904 34.9626 159.668 35.1507C157.796 35.4142 155.548 36.468 154.537 37.597C153.825 38.3873 153.825 38.425 154.912 39.554C156.447 41.1723 159.369 41.9626 161.841 41.4357C162.852 41.2099 164.35 40.6078 165.099 40.0809C166.185 39.3282 166.56 39.2529 166.934 39.6293C167.421 40.1185 170.792 46.0648 170.642 46.1777C170.605 46.2153 169.743 45.839 168.732 45.3497C165.961 43.9196 162.889 44.296 160.155 46.3659C159.481 46.8927 159.481 46.968 160.118 47.9465C161.99 50.7691 167.084 51.8605 170.418 50.0917C171.279 49.6401 172.141 49.3766 172.29 49.5648C172.627 49.9411 175.287 56.5272 175.287 57.0165C175.287 57.2046 174.837 56.9036 174.275 56.3767C172.665 54.9089 171.766 54.5702 169.294 54.5702C167.758 54.5702 166.56 54.796 165.511 55.3229C164.088 56.0756 164.05 56.1132 164.575 57.1294C165.436 58.8229 167.122 60.1025 169.257 60.8176C171.242 61.4573 173.414 61.3068 175.736 60.4036C176.261 60.2154 176.485 60.6294 177.122 62.7369C177.534 64.1294 177.983 65.9735 178.133 66.7638L178.395 68.2692L177.047 66.952C174.95 64.9197 171.991 64.2423 169.257 65.1455C167.384 65.7853 167.271 66.0111 168.133 67.7047C169.706 70.7531 173.714 72.6348 177.122 71.8445C178.021 71.6563 178.845 71.5434 178.92 71.6563C179.107 71.8445 180.156 78.4306 180.156 79.3714C180.156 79.6725 179.519 79.1833 178.77 78.28C176.523 75.6456 173.863 74.78 170.717 75.6456C169.406 76.0219 169.369 76.0972 169.706 77.2263C170.717 80.8015 174.013 83.1725 177.983 83.1725H180.156V87.3876C180.118 91.4898 180.118 91.6027 179.519 90.5113C177.909 87.3876 174.575 85.5435 171.466 86.0328L170.006 86.2962L170.268 87.8392C170.867 91.4521 173.826 94.1242 177.571 94.3876C180.118 94.5758 180.081 94.5382 179.369 98.9414C178.658 103.608 178.695 103.533 177.796 101.237C176.785 98.7533 174.725 97.135 172.028 96.721C169.669 96.3446 169.294 96.5328 169.294 98.0758C169.294 101.764 172.478 105.189 176.523 105.941C178.133 106.243 178.133 106.205 176.71 111.21C175.849 114.183 175.287 115.087 175.287 113.544C175.287 110.796 172.89 108.049 169.706 107.108C167.309 106.393 167.047 106.581 167.047 108.99C167.047 112.302 170.193 116.253 173.339 116.893C173.976 117.006 174.538 117.307 174.538 117.495C174.538 117.721 173.826 119.528 172.965 121.522C171.729 124.27 171.317 124.909 171.242 124.194C170.979 122.2 169.968 119.753 168.994 118.813C168.208 118.06 164.874 116.291 164.238 116.291C163.975 116.291 163.301 118.775 163.301 119.829C163.301 122.538 166.373 126.829 168.732 127.431C169.257 127.544 169.669 127.845 169.669 128.071C169.669 128.522 166.373 134.28 165.923 134.544C165.773 134.619 165.549 133.791 165.474 132.624C165.249 130.065 163.751 127.77 161.466 126.49C160.005 125.662 159.818 125.662 159.256 126.227C158.882 126.603 158.62 127.694 158.507 129.2C158.32 132.286 159.518 134.845 161.953 136.651C162.889 137.329 163.563 138.044 163.414 138.27C162.964 139.06 159.593 143.275 159.032 143.727C158.545 144.141 158.507 143.915 158.694 142.146C158.957 139.436 157.983 137.216 155.661 135.296C153.975 133.942 153.9 133.904 153.376 134.581C151.129 137.517 152.177 143.614 155.324 145.947L156.372 146.737L153.938 149.221C152.589 150.614 151.204 151.893 150.866 152.082C150.267 152.383 150.23 152.345 150.567 151.479C151.616 148.732 150.679 145.081 148.357 142.861C147.346 141.883 147.158 141.845 146.597 142.297C145.548 143.162 144.574 145.684 144.574 147.565C144.574 149.56 145.361 151.743 146.672 153.286C147.158 153.888 147.57 154.49 147.57 154.678C147.57 155.055 141.465 159.608 141.278 159.383C141.203 159.307 141.428 158.705 141.802 158.028C143.076 155.506 142.252 151.216 140.08 149.221C138.993 148.243 138.282 148.732 137.008 151.291C135.585 154.039 135.622 156.146 137.083 159.044L138.207 161.264L137.345 161.979C136.596 162.582 131.727 165.216 131.315 165.216C131.203 165.216 131.577 164.426 132.102 163.485C133.338 161.264 133.413 158.517 132.326 156.334C130.978 153.775 130.641 153.7 128.956 155.431C126.521 157.84 125.884 162.055 127.457 165.178C127.795 165.893 127.982 166.571 127.907 166.759C127.72 167.022 122.963 168.942 120.978 169.544L120.041 169.807L121.053 168.754C122.364 167.324 123.225 165.216 123.188 163.447C123.188 161.829 122.101 158.743 121.502 158.555C121.277 158.479 120.379 158.931 119.517 159.571C117.27 161.227 116.333 163.447 116.596 166.684C116.708 168.039 116.895 169.506 117.045 169.92C117.232 170.522 117.045 170.786 116.221 171.125L115.172 171.539L116.371 171.576C117.457 171.614 117.569 171.764 118.206 173.721C119.405 177.598 123.3 179.743 127.345 178.764C129.48 178.238 129.592 177.936 128.506 175.566C127.345 173.006 124.236 170.861 121.689 170.861C120.041 170.861 120.491 170.522 124.087 169.13C125.772 168.49 127.457 167.813 127.795 167.7C128.281 167.474 128.581 167.813 129.218 169.205C129.63 170.221 130.266 171.35 130.641 171.764C132.364 173.684 136.821 174.474 139.555 173.307C140.754 172.818 140.866 172.63 140.641 171.727C139.967 168.979 136.971 166.797 133.338 166.383L131.278 166.157L134.948 164.162C136.971 163.108 138.656 162.205 138.731 162.205C138.806 162.205 139.368 163.033 140.005 164.049C141.465 166.458 143.376 167.474 146.334 167.474C148.469 167.474 151.241 166.345 151.578 165.404C151.803 164.689 150.23 162.619 148.694 161.603C147.496 160.813 146.597 160.549 144.387 160.399L141.615 160.211L144.986 157.802L148.394 155.356L148.994 156.221C151.391 159.721 155.211 160.813 158.882 159.006C159.556 158.705 160.53 158.065 161.017 157.651L161.915 156.899L160.342 155.28C158.357 153.248 156.335 152.608 153.114 152.947C151.84 153.06 150.941 153.022 151.129 152.872C151.353 152.721 152.739 151.404 154.237 149.974L156.934 147.377L158.357 148.77C160.043 150.388 161.279 150.915 163.601 150.915C165.736 150.915 167.983 149.899 169.481 148.318L170.567 147.114L169.481 146.173C166.785 143.952 164.163 143.313 161.429 144.291C160.492 144.63 159.631 144.893 159.443 144.893C159.219 144.893 162.889 139.963 164.05 138.759C164.2 138.571 165.099 138.985 166.035 139.662C168.47 141.356 171.054 141.581 173.639 140.264C175.324 139.399 177.534 137.178 177.534 136.35C177.534 136.2 176.897 135.635 176.111 135.108C174.013 133.753 170.455 133.603 168.095 134.845C167.084 135.334 166.298 135.71 166.298 135.635C166.298 135.56 167.234 133.866 168.433 131.909L170.53 128.372L172.103 129.275C175.811 131.458 180.793 129.952 182.815 126.001L183.527 124.608L182.178 123.818C181.092 123.103 180.455 122.99 178.096 123.14C175.699 123.253 175.099 123.442 173.639 124.495L171.916 125.7L172.44 124.458C172.702 123.818 173.414 122.162 174.013 120.807C174.575 119.452 175.137 118.248 175.287 118.06C175.437 117.909 176.148 118.022 176.897 118.361C180.493 119.866 184.913 118.323 186.635 114.936C187.834 112.528 187.797 112.189 186.373 111.587C183.564 110.382 179.969 111.248 177.534 113.732C176.897 114.334 176.41 114.748 176.41 114.597C176.41 114.485 176.86 112.829 177.384 110.909C177.946 108.99 178.433 107.221 178.508 106.92C178.62 106.581 178.957 106.506 179.519 106.657C182.89 107.673 185.325 107.146 187.572 105.001C189.257 103.345 190.643 99.9576 189.931 99.2425C189.707 99.0167 188.471 98.8285 187.197 98.8285C184.351 98.8285 182.291 99.7694 180.53 101.877L179.369 103.307L179.594 101.99C179.856 100.372 180.53 95.5167 180.53 95.1027C180.53 94.9522 181.429 94.9522 182.515 95.0651C186.823 95.5919 190.381 92.6188 190.905 88.065C191.092 86.2962 191.092 86.2209 190.044 85.9575C188.733 85.6188 185.999 86.3338 184.351 87.4252C183.677 87.8768 182.628 89.0059 181.991 89.9468L180.867 91.6027L180.98 87.3123L181.092 82.9843L182.478 83.0973C184.163 83.2478 186.898 82.0811 188.246 80.651C189.632 79.1456 190.268 77.3768 190.268 75.0434C190.268 73.0864 190.231 73.0112 189.257 73.0112C187.01 73.0112 185.212 73.8391 183.452 75.6832C182.478 76.6617 181.579 77.9413 181.429 78.4682C181.017 80.1241 180.643 79.4843 180.381 76.6617C180.231 75.194 180.043 73.3123 179.894 72.5219L179.669 71.1294H181.055C183.826 71.1294 186.823 68.7585 187.647 65.9359C187.871 65.1832 188.021 63.6025 187.946 62.4735L187.834 60.4036L186.336 60.5165C183.564 60.7423 180.793 63.2638 179.706 66.5757L179.182 68.1939L178.171 64.1294C177.609 61.909 177.272 59.952 177.422 59.8391C177.609 59.6885 178.433 59.3874 179.257 59.1616C181.317 58.5595 182.553 57.5433 183.489 55.5863C184.351 53.7799 184.538 50.882 183.864 48.9626C183.639 48.3229 183.414 47.796 183.377 47.796C182.853 47.796 180.493 48.8121 179.669 49.3766C178.171 50.468 176.41 53.7046 176.41 55.4734C176.41 57.3928 176.148 57.0917 174.613 53.3283C172.777 48.8874 172.777 48.6992 174.051 48.3981C175.699 47.9841 177.534 46.3282 178.321 44.6347C179.182 42.7153 179.219 39.6669 178.433 37.6346C177.909 36.3551 177.684 36.1292 177.01 36.3551C174.35 37.1454 171.541 41.2476 171.541 44.3712V46.0648L169.631 42.7153C168.582 40.8712 167.646 39.1776 167.534 38.9142C167.459 38.6884 168.133 38.0486 169.032 37.4841C170.942 36.3927 172.665 33.4572 172.665 31.4249C172.665 29.9572 171.729 27.2098 170.867 26.0432L170.23 25.2152L168.845 26.1561C166.672 27.6238 165.773 29.4679 165.549 32.855L165.361 35.7905L163.489 33.269C160.267 28.941 160.342 29.3926 162.29 27.4733C165.436 24.2743 165.511 19.6453 162.44 16.2958L161.691 15.4678L160.642 16.2205C160.08 16.6345 159.144 17.8764 158.582 19.0055C157.758 20.7367 157.608 21.4141 157.758 23.2582C157.87 24.4249 158.095 25.7421 158.245 26.1561C158.395 26.57 157.121 25.5163 155.398 23.8227L152.29 20.699L153.451 19.4947C154.912 17.9517 155.81 15.9194 155.81 14.0377C155.81 12.2312 154.387 9.18284 152.889 7.75273L151.765 6.69896L150.604 8.27961C148.582 11.1022 148.207 14.5646 149.63 17.3119C149.968 17.9517 150.117 18.441 150.042 18.441C149.93 18.441 148.357 17.3119 146.522 15.8818L143.226 13.3603L144.349 11.7796C145.773 9.74736 146.072 6.77423 145.136 4.32798C144.537 2.70969 141.952 -3.11421e-06 141.016 -3.11421e-06C140.791 -3.11421e-06 140.192 0.715055 139.668 1.58065Z" fill="black"/>
<path d="M67.9797 130.63C67.8673 130.931 67.4179 132.323 66.931 133.791L66.0321 136.425L62.5113 136.614L59.0281 136.802L61.7248 138.796C63.223 139.925 64.4215 141.055 64.4215 141.318C64.4215 141.619 63.9721 143.049 63.4477 144.517C62.9233 146.022 62.5488 147.302 62.6237 147.377C62.7735 147.49 63.9721 146.7 67.343 144.291C68.1295 143.689 68.2793 143.727 70.152 145.006C71.2008 145.759 72.5491 146.737 73.1109 147.151L74.1222 147.942L73.5978 146.098C73.2608 145.044 72.7738 143.501 72.4742 142.635C72.1746 141.77 71.9124 141.017 71.9124 140.979C71.9124 140.942 73.1858 140.001 74.7589 138.872L77.6429 136.802L74.0473 136.689L70.4891 136.576L69.4779 133.49C68.3168 130.028 68.2793 129.877 67.9797 130.63Z" fill="black"/>
<path d="M93.8234 134.807C93.0368 137.366 92.1754 140.076 91.8757 140.829L91.3139 142.259L84.9092 142.334L78.467 142.447L83.6358 146.211C87.8681 149.259 88.8045 150.087 88.6547 150.727C88.5797 151.141 87.7183 153.85 86.7819 156.748C85.8456 159.646 85.1339 162.092 85.2088 162.13C85.2838 162.205 87.1565 160.926 89.4037 159.27C95.6212 154.678 95.3215 154.829 96.5575 155.619C97.1194 155.996 99.3666 157.614 101.539 159.232C103.711 160.888 105.622 162.205 105.734 162.205C105.996 162.205 105.696 161.264 103.562 154.528L102.138 150.087L103.037 149.372C103.524 148.996 105.884 147.264 108.243 145.571L112.551 142.447L106.183 142.334C101.689 142.259 99.7786 142.108 99.5539 141.77C99.4041 141.544 98.4677 138.834 97.4939 135.748C96.5201 132.7 95.6212 130.216 95.5088 130.216C95.359 130.216 94.6099 132.286 93.8234 134.807Z" fill="black"/>
<path d="M121.577 133.377L120.528 136.576L116.97 136.689L113.375 136.802L116.259 138.834C117.832 139.963 119.105 140.979 119.105 141.13C119.105 141.28 118.88 141.995 118.581 142.673C118.281 143.388 117.794 144.856 117.457 145.947L116.895 147.942L117.906 147.151C118.468 146.737 119.779 145.759 120.865 145.006L122.813 143.689L125.472 145.646C126.97 146.7 128.206 147.528 128.281 147.452C128.394 147.377 128.019 145.985 127.532 144.404C127.008 142.786 126.596 141.318 126.596 141.167C126.596 140.979 127.794 139.925 129.293 138.796L131.989 136.802L128.469 136.614L124.985 136.425L124.012 133.528C123.487 131.947 122.925 130.554 122.813 130.404C122.663 130.291 122.101 131.646 121.577 133.377Z" fill="black"/>
</svg>
