<svg width="67" height="68" viewBox="0 0 67 68" fill="none" xmlns="http://www.w3.org/2000/svg">
<g clip-path="url(#clip0_126_649)">
<path d="M34.6097 0.906738C34.1807 0.906738 33.7378 0.92899 33.2838 0.965148C21.583 1.89137 24.686 14.3355 24.5089 18.4826C24.2957 21.5227 23.6784 23.9175 21.5996 26.8853C19.1498 29.8086 15.7118 34.5343 14.0814 39.4602C13.3118 41.7743 12.9464 44.1441 13.2869 46.3832C13.179 46.4777 13.0765 46.5723 12.9797 46.7587C12.2599 47.5041 11.7368 48.4303 11.1472 49.0923C10.5963 49.6458 9.80463 49.8349 8.94098 50.2048C8.07456 50.5831 7.11956 50.9531 6.54933 52.099C6.30019 52.6219 6.17286 53.1921 6.18393 53.7706C6.18393 54.3241 6.25867 54.886 6.33618 55.2615C6.49673 56.3713 6.65728 57.2892 6.44414 57.9595C5.75764 59.8509 5.67183 61.147 6.15349 62.0899C6.63514 63.0189 7.63443 63.3944 8.75275 63.7615C10.9977 64.3178 14.0398 64.137 16.4343 65.4276C18.9975 66.7266 21.5996 67.294 23.6757 66.7349C25.1317 66.415 26.3607 65.4471 27.0195 64.1064C28.6444 64.0981 30.4243 63.3582 33.2755 63.1774C35.2104 63.0161 37.6325 63.9201 40.4117 63.731C40.4809 64.1064 40.5861 64.2845 40.7273 64.6599L40.7356 64.6683C41.8179 66.8322 43.8165 67.8169 45.9507 67.6472C48.0849 67.4803 50.3575 66.1564 52.1983 64.0147C53.945 61.8869 56.8571 60.9996 58.7809 59.8342C59.7442 59.2807 60.522 58.5297 60.5774 57.4616C60.6411 56.349 60.0266 55.2031 58.601 53.6316V53.3618L58.5927 53.3534C58.1221 52.7971 57.9006 51.8654 57.657 50.7778C57.4218 49.6625 57.1533 48.5916 56.2951 47.8684H56.2868C56.1235 47.7182 55.9464 47.6821 55.7664 47.493C55.6114 47.3873 55.4315 47.3205 55.2405 47.3149C56.4335 43.7603 55.9713 40.2223 54.7616 37.0403C53.2862 33.1185 50.7063 29.7029 48.7409 27.3526C46.5375 24.5573 44.3784 21.9093 44.4199 17.982C44.4947 11.9963 45.076 0.923427 34.6097 0.906738V0.906738ZM36.074 10.3775H36.11C36.6996 10.3775 37.2062 10.55 37.7266 10.9282C38.2553 11.3037 38.6401 11.8517 38.9418 12.4107C39.2325 13.1311 39.3792 13.6874 39.4013 14.4245C39.4013 14.3689 39.4179 14.3132 39.4179 14.2604V14.5497C39.4124 14.5302 39.4069 14.5079 39.4069 14.4913L39.3958 14.4245C39.3903 15.1004 39.2491 15.7679 38.9806 16.3882C38.8505 16.7359 38.6512 17.0557 38.391 17.32C38.3107 17.2755 38.2332 17.2365 38.1474 17.2032C37.8567 17.078 37.5965 17.0251 37.3585 16.8332C37.1619 16.7553 36.9571 16.6914 36.7522 16.6496C36.8879 16.4855 37.1536 16.2797 37.256 16.0989C37.4027 15.7429 37.483 15.3646 37.4996 14.9808V14.9279C37.5052 14.5524 37.4498 14.1742 37.3308 13.8154C37.2062 13.4399 37.0512 13.2563 36.8242 12.8864C36.5917 12.7028 36.3619 12.5192 36.0851 12.5192H36.0408C35.7834 12.5192 35.5536 12.6027 35.3156 12.8864C35.0526 13.1478 34.8561 13.4621 34.7481 13.8154C34.6014 14.1686 34.5156 14.5497 34.499 14.9279V14.9808C34.5045 15.2283 34.5211 15.4787 34.5544 15.7234C34.0201 15.5371 33.3419 15.3479 32.8741 15.1616C32.8464 14.9808 32.8298 14.7944 32.8243 14.6081V14.5524C32.8021 13.8181 32.9433 13.0894 33.2395 12.4135C33.4665 11.8044 33.8817 11.2843 34.4298 10.931C34.9031 10.5722 35.4789 10.3775 36.074 10.3775V10.3775ZM27.8749 10.5416H27.9745C28.3676 10.5416 28.7219 10.6751 29.079 10.9171C29.4832 11.2759 29.8098 11.7182 30.0313 12.2105C30.2804 12.764 30.4216 13.3258 30.4548 14.0657V14.0768C30.4742 14.4495 30.4714 14.6359 30.4492 14.8167V15.0392C30.3662 15.0587 30.2942 15.0893 30.2195 15.106C29.7987 15.2589 29.461 15.4814 29.1316 15.6622C29.1648 15.4147 29.1676 15.1644 29.1399 14.9196V14.8779C29.1067 14.5079 29.032 14.3244 28.9129 13.9517C28.8271 13.668 28.6693 13.4148 28.4534 13.209C28.3178 13.0838 28.1351 13.0199 27.9469 13.031H27.8887C27.6922 13.0477 27.5289 13.145 27.3739 13.3982C27.1967 13.6123 27.0832 13.8738 27.0417 14.1491C26.9669 14.4495 26.9448 14.7583 26.978 15.0698V15.1087C27.0112 15.4842 27.0804 15.6678 27.2022 16.0377C27.3268 16.4104 27.4707 16.594 27.659 16.7832C27.6894 16.8082 27.7171 16.8332 27.7531 16.8499C27.5593 17.0085 27.4292 17.0446 27.2659 17.2282C27.1635 17.3061 27.0445 17.3951 26.9033 17.4173C26.6154 17.0696 26.3607 16.6941 26.142 16.2992C25.8763 15.7151 25.7379 15.0809 25.713 14.444C25.6659 13.8154 25.7434 13.1868 25.9344 12.586C26.0867 12.038 26.3552 11.5318 26.7178 11.0979C27.0721 10.728 27.4375 10.5416 27.8749 10.5416V10.5416ZM31.67 15.2867C32.5862 15.2867 33.6962 15.4675 35.0332 16.3965C35.8443 16.9528 36.481 17.1447 37.9481 17.6982H37.9564C38.6622 18.0765 39.0775 18.4381 39.2795 18.808V18.4437C39.4816 18.8525 39.4954 19.3282 39.3238 19.7509C38.9833 20.616 37.8955 21.5422 36.3785 22.0957V22.1013C35.6367 22.4767 34.9917 23.0275 34.2333 23.3946C33.4693 23.7701 32.6056 24.2068 31.4319 24.1373C31.0112 24.1595 30.5876 24.0955 30.1918 23.9509C29.8873 23.784 29.5884 23.6004 29.3005 23.4002C28.7607 23.0247 28.2956 22.4767 27.6064 22.1068V22.0929H27.5925C26.4853 21.4087 25.8874 20.6688 25.6936 20.1153C25.5026 19.3699 25.6798 18.8108 26.2279 18.4465C26.8479 18.071 27.2797 17.6927 27.5649 17.5119C27.8527 17.3061 27.9607 17.2282 28.052 17.1475H28.0576V17.1392C28.5254 16.5773 29.2645 15.8347 30.38 15.4675C30.7648 15.3674 31.1939 15.2867 31.67 15.2867V15.2867ZM39.4179 21.2474C40.4117 25.1886 42.7314 30.9128 44.2234 33.6887C45.0151 35.174 46.5901 38.3031 47.2738 42.0998C47.7057 42.0858 48.1846 42.1498 48.6939 42.2778C50.4821 37.63 47.1825 32.6345 45.6794 31.2466C45.0677 30.6875 45.0372 30.3148 45.3389 30.3148C46.9694 31.8001 49.1174 34.6872 49.8953 37.9832C50.2523 39.4713 50.3354 41.0539 49.9534 42.6282C50.1388 42.7061 50.3271 42.7979 50.5208 42.8146C53.3775 44.2999 54.4322 45.4236 53.9256 47.0896V46.97C53.7568 46.9617 53.5935 46.97 53.4246 46.97H53.3831C53.8011 45.6711 52.8793 44.6754 50.435 43.5656C47.9022 42.453 45.8787 42.631 45.5327 44.8589C45.5133 44.9785 45.4995 45.0425 45.4856 45.2344C45.2974 45.2984 45.1009 45.3818 44.9071 45.4124C43.7168 46.1579 43.0746 47.2732 42.712 48.714C42.3521 50.1965 42.2414 51.9293 42.1445 53.9125V53.9208C42.0864 54.8498 41.6712 56.2517 41.2615 57.6786C37.1093 60.6602 31.3516 61.9564 26.4548 58.6076C26.1476 58.0707 25.7739 57.5673 25.3421 57.125C25.1372 56.7774 24.877 56.4659 24.5808 56.1961C25.0846 56.1961 25.5165 56.1154 25.868 56.0097C26.2694 55.8233 26.5794 55.4868 26.7372 55.0807C27.0362 54.3381 26.7372 53.142 25.7822 51.8459C24.8272 50.547 23.2051 49.0784 20.8328 47.6153C19.0889 46.5055 18.1034 45.1955 17.6495 43.7325C17.1927 42.2472 17.2536 40.7146 17.6079 39.157C18.2861 36.1809 20.0245 33.2882 21.1345 31.4719C21.4307 31.2911 21.2369 31.8474 20.0051 34.181C18.909 36.2699 16.8467 41.1263 19.6674 44.9007C19.7726 42.1498 20.3816 39.4351 21.4584 36.9013C23.0196 33.3466 26.2832 27.1551 26.5407 22.2487C26.6735 22.3488 27.1413 22.6242 27.3406 22.8105C27.9441 23.1804 28.3925 23.7367 28.9738 24.1039C29.5579 24.663 30.2942 25.0357 31.3987 25.0357C31.5067 25.044 31.6063 25.0524 31.706 25.0524C32.8437 25.0524 33.7239 24.6796 34.463 24.3069C35.2658 23.9342 35.9052 23.3779 36.5114 23.1944H36.5253C37.818 22.8189 38.8394 22.0762 39.4179 21.2474V21.2474ZM45.469 46.1634C45.5715 47.8351 46.4185 49.6263 47.9105 49.9935C49.5382 50.3662 51.88 49.0672 52.8682 47.8657L53.4523 47.8406C54.3242 47.8184 55.0495 47.8684 55.7969 48.5833L55.8052 48.5916C56.3809 49.1451 56.6495 50.0686 56.8875 51.0282C57.1228 52.1435 57.3138 53.1977 58.0197 53.9932C59.365 55.459 59.8051 56.5131 59.7802 57.164L59.7885 57.1473V57.1974L59.7802 57.164C59.7387 57.8927 59.2681 58.2654 58.4017 58.8189C56.6578 59.9343 53.5685 60.7993 51.6004 63.1858C49.8897 65.2357 47.8053 66.3538 45.9645 66.4985C44.1265 66.6459 42.5404 65.9422 41.6075 64.0008L41.5937 63.9924C41.0124 62.8771 41.2615 61.1414 41.7487 59.2918C42.2359 57.4338 42.9334 55.5508 43.0303 54.0126C43.1327 52.0267 43.2407 50.2994 43.5701 48.9671C43.9023 47.6737 44.4227 46.7503 45.3445 46.2302L45.469 46.169V46.1634ZM15.5319 46.2997H15.5595C15.7063 46.2997 15.8502 46.3136 15.9941 46.3387C17.0349 46.4916 17.9484 47.2649 18.8259 48.4303L21.3449 53.0586L21.3532 53.0669C22.0259 54.5494 23.4404 56.0264 24.6445 57.6229C25.8459 59.2862 26.7759 60.7687 26.6625 61.9898V62.0065C26.5047 64.0758 25.3365 65.1995 23.5483 65.6056C21.7629 65.9811 19.3408 65.6112 16.9187 64.3151C14.2392 62.8242 11.0558 63.0106 9.01018 62.6406C7.98875 62.4571 7.31886 62.0816 7.00883 61.5253C6.70157 60.9718 6.69604 59.8536 7.34931 58.1041V58.0958L7.35485 58.0874C7.67872 57.1584 7.43789 55.993 7.28011 54.975C7.12786 53.8596 7.05035 53.003 7.39914 52.3605C7.84204 51.4315 8.49531 51.2507 9.30637 50.878C10.123 50.5025 11.0807 50.3161 11.842 49.5735H11.8475V49.5651C12.5561 48.8197 13.0793 47.8935 13.6966 47.2343C14.2225 46.6752 14.7485 46.2997 15.5319 46.2997V46.2997ZM35.3488 21.061C34.1447 21.6201 32.7329 22.5491 31.2298 22.5491C29.7295 22.5491 28.5448 21.8064 27.6894 21.2529C27.2604 20.8802 26.9144 20.5075 26.6541 20.3211C26.2002 19.9484 26.2555 19.3921 26.4493 19.3921C26.751 19.4366 26.8064 19.7676 27.0002 19.9512C27.2659 20.1348 27.5953 20.5047 27.9995 20.8774C28.805 21.4337 29.8818 22.1764 31.2271 22.1764C32.5696 22.1764 34.1419 21.4337 35.0969 20.8802C35.6367 20.5047 36.3287 19.9512 36.8906 19.5813C37.3225 19.2002 37.3031 18.8359 37.6629 18.8359C38.02 18.8804 37.7571 19.2086 37.256 19.7621C36.755 20.1376 35.9799 20.6938 35.346 21.0638V21.061H35.3488ZM32.3537 16.6552V16.594C32.3371 16.5412 32.3897 16.4772 32.434 16.4549C32.6388 16.3353 32.9322 16.3798 33.1537 16.4661C33.3281 16.4661 33.5966 16.6524 33.5689 16.8416C33.5523 16.9779 33.3336 17.0251 33.1952 17.0251C33.043 17.0251 32.9405 16.9055 32.8049 16.836C32.661 16.7859 32.4008 16.8138 32.3537 16.6552V16.6552ZM30.8285 16.6552C30.7731 16.8165 30.5157 16.7915 30.369 16.8388C30.2389 16.9083 30.1309 17.0279 29.9842 17.0279C29.843 17.0279 29.6216 16.9751 29.605 16.8388C29.58 16.6552 29.8486 16.4689 30.0202 16.4689C30.2444 16.3826 30.5295 16.3381 30.7371 16.4549C30.7897 16.48 30.8368 16.5384 30.8202 16.594V16.6524H30.8285V16.6552Z" fill="black"/>
</g>
<defs>
<clipPath id="clip0_126_649">
<rect width="66.4348" height="66.7544" fill="white" transform="translate(0 0.906738)"/>
</clipPath>
</defs>
</svg>
