<svg width="94" height="100" viewBox="0 0 94 100" fill="none" xmlns="http://www.w3.org/2000/svg">
<path d="M25.7017 32.8659C25.728 31.9073 25.8095 28.9923 27.7512 28.2128C29.6718 27.4417 31.6503 29.5394 32.0278 29.9677C32.5237 30.5316 32.4961 31.4175 31.966 31.9465C31.4345 32.4713 30.6031 32.4447 30.1059 31.8807C29.6494 31.3671 28.9259 30.8535 28.651 30.8437C28.6694 30.8829 28.3774 31.3321 28.3313 32.9485C28.1866 38.1698 31.9397 39.628 32.0988 39.6868C32.5066 39.8379 32.8263 40.1962 32.9421 40.6384L33.0026 40.8735C33.0249 40.9575 33.0381 41.0429 33.046 41.1296C34.1312 54.8946 44.3657 59.349 49.1527 59.349C53.9397 59.349 64.1741 54.896 65.2594 41.1296C65.2659 41.0443 65.2804 40.9603 65.3015 40.8777L65.362 40.6426C65.4777 40.192 65.7987 39.8309 66.2157 39.684C66.3657 39.628 70.1187 38.1698 69.974 32.9485C69.924 31.1684 69.5754 30.8031 69.5715 30.7989C69.4084 30.8311 68.6651 31.3573 68.1981 31.8821C67.6996 32.4419 66.8682 32.4685 66.3394 31.9409C65.8119 31.4119 65.7829 30.5302 66.2789 29.9663C66.6564 29.538 68.6336 27.4403 70.5555 28.2114C72.4971 28.9923 72.5787 31.9073 72.605 32.8645C72.7484 38.0397 69.8754 40.8987 67.8272 41.9903C66.4446 55.8868 56.1457 62.1465 49.154 62.1465C42.1622 62.1465 31.8621 55.8882 30.4795 41.9903C28.4313 40.9001 25.5583 38.0425 25.7017 32.8659ZM29.0706 23.4994C29.0706 4.22212 43.5435 0 49.1198 0C54.7145 0 69.2347 4.22212 69.2347 23.4994C69.2347 24.1124 68.8585 24.6554 68.3073 24.8373L66.2578 25.5104L64.4306 27.6628C64.1807 27.9581 63.8255 28.1246 63.4545 28.1246C63.4124 28.1246 63.3717 28.1232 63.3296 28.119C62.9231 28.077 62.56 27.8391 62.343 27.4739C62.2627 27.3521 59.6212 23.5148 49.1527 23.5064C38.571 23.5148 35.9874 27.4375 35.9624 27.4767C35.7374 27.8349 35.3599 28.077 34.9561 28.1092C34.5535 28.1484 34.1484 27.9861 33.876 27.6656L32.0489 25.5132L29.9993 24.8401C29.4455 24.6568 29.0706 24.1138 29.0706 23.4994ZM31.7174 22.4737L33.1696 22.9509C33.3959 23.025 33.5985 23.1636 33.7577 23.3497L34.8692 24.6596C36.6083 23.0782 40.631 20.7146 49.1527 20.7076C57.6743 20.7132 61.6984 23.0782 63.4374 24.6596L64.5477 23.3511C64.7069 23.1636 64.9094 23.0264 65.1357 22.9509L66.588 22.4737C66.0105 3.34187 49.2921 2.79889 49.1198 2.79889C48.9488 2.79889 32.2922 3.34187 31.7174 22.4737ZM34.7351 19.0702C34.4891 18.3425 34.8442 17.5406 35.527 17.2789C37.3857 16.5666 39.2892 16.039 41.2111 15.629C40.9125 14.5094 40.6126 13.3899 40.3364 12.2661C40.2469 11.9051 40.2982 11.5202 40.4771 11.1997C40.656 10.8779 40.948 10.6456 41.2888 10.556C46.5059 9.16355 51.7968 9.16355 57.014 10.556C57.3547 10.647 57.6467 10.8779 57.8256 11.1997C58.0045 11.5202 58.0558 11.9051 57.9664 12.2661C57.6901 13.3885 57.3902 14.508 57.0916 15.629C59.0135 16.039 60.917 16.5666 62.7757 17.2789C63.4598 17.5406 63.8137 18.3425 63.5677 19.0702C63.3743 19.6412 62.8691 19.9952 62.3298 19.9966C62.1825 19.9966 62.0312 19.9687 61.8839 19.9127C53.6726 16.7667 44.6287 16.7667 36.4175 19.9127C35.7348 20.173 34.9824 19.7965 34.7351 19.0702ZM43.8184 15.1714C47.3597 14.669 50.9444 14.669 54.4856 15.1714C54.6842 14.4325 54.8842 13.6949 55.0723 12.9546C51.1364 12.0968 47.165 12.0968 43.2304 12.9546C43.4198 13.6949 43.6198 14.4325 43.8184 15.1714ZM92.5042 45.0956V52.244C92.5042 52.9941 92.128 53.6868 91.5176 54.0619L86.6845 57.0301V74.6043C86.6845 74.6435 86.6753 74.6785 86.674 74.7163C88.2671 74.9612 89.4812 75.5237 90.335 76.4348C91.9057 78.1155 91.8938 80.4736 91.8833 82.5545L91.882 92.2653C91.882 96.4706 88.6656 99.8922 84.7126 99.8922C80.7596 99.8922 77.5433 96.4706 77.5433 92.2653L77.542 82.5545C77.5314 80.4736 77.5196 78.1155 79.0903 76.4348C79.9427 75.5223 81.1582 74.9612 82.7513 74.7163C82.7499 74.6785 82.7407 74.6421 82.7407 74.6043V72.4506C81.3897 67.5791 78.6325 63.0687 74.9255 59.5155L71.2974 70.5025V100H49.1527H27.0119V70.5025L23.2509 59.1153C18.0719 63.6495 14.649 69.7231 13.9124 76.1255C14.0347 76.2319 14.1821 76.3172 14.2926 76.4348C15.8632 78.1155 15.8514 80.4736 15.8409 82.5545L15.8396 92.2667C15.8396 96.472 12.6232 99.8936 8.67021 99.8936C4.7172 99.8936 1.50086 96.472 1.50086 92.2667L1.49954 82.5559C1.48902 80.475 1.47718 78.1169 3.04786 76.4362C3.65561 75.7854 4.45016 75.3166 5.42887 75.0073V67.5987C5.42887 66.8262 6.01821 66.1993 6.74435 66.1993H7.68228V52.71C7.68228 52.1307 8.12428 51.6604 8.66889 51.6604C9.2135 51.6604 9.6555 52.1307 9.6555 52.71V66.1993H10.5947C11.3209 66.1993 11.9102 66.8262 11.9102 67.5987V72.3988C13.4467 66.2594 17.1616 60.5945 22.3301 56.3262L21.9407 55.1479C21.7 54.4187 22.0604 53.6197 22.7458 53.3636C23.4325 53.1061 24.1823 53.4909 24.423 54.22L24.5559 54.6245C26.3397 53.386 28.2616 52.3028 30.3032 51.4113C30.6387 51.2644 31.0175 51.2714 31.3477 51.4323C31.6779 51.5919 31.9318 51.8913 32.0489 52.2566C34.3615 59.5071 41.0151 64.1925 49.0001 64.1925C56.9863 64.1925 63.64 59.5071 65.9526 52.2566C66.0684 51.8913 66.3223 51.5919 66.6538 51.4323C66.984 51.2714 67.3628 51.2644 67.6983 51.4113C69.8188 52.3378 71.8104 53.5245 73.6587 54.9015L73.8836 54.2214C74.1244 53.4923 74.8742 53.1089 75.5609 53.365C76.2462 53.6211 76.6067 54.4201 76.3659 55.1493L75.8595 56.683C78.6457 59.1768 80.9819 62.1605 82.7381 65.4338V57.0315L77.905 54.0633C77.2947 53.6882 76.9184 52.9955 76.9184 52.2454V45.097C76.9184 43.9369 77.8011 42.9979 78.8916 42.9979C79.9822 42.9979 80.8649 43.9369 80.8649 45.097V51.0335L84.7113 53.3957L88.5578 51.0335V45.097C88.5578 43.9369 89.4405 42.9979 90.531 42.9979C91.6215 42.9979 92.5042 43.9355 92.5042 45.0956ZM8.05851 73.6359H9.27927V68.9981H8.05851V73.6359ZM12.8061 94.2301H10.1264C9.4003 94.2301 8.81096 93.6031 8.81096 92.8307C8.81096 92.0582 9.4003 91.4312 10.1264 91.4312H13.206V89.069H10.1264C9.4003 89.069 8.81096 88.442 8.81096 87.6695C8.81096 86.897 9.4003 86.2701 10.1264 86.2701H13.2073V83.7203H10.1264C9.4003 83.7203 8.81096 83.0933 8.81096 82.3208C8.81096 81.5483 9.4003 80.9214 10.1264 80.9214H13.1849C13.131 79.8844 12.96 78.9804 12.4259 78.4094C11.78 77.7181 10.5158 77.3668 8.66889 77.3668C6.82196 77.3668 5.55779 77.7167 4.91189 78.4094C4.11208 79.2645 4.11997 80.8556 4.12918 82.5406L4.1305 92.2667C4.1305 94.9284 6.16685 97.0947 8.66889 97.0947C10.5132 97.0947 12.097 95.915 12.8061 94.2301ZM31.078 73.6093C31.078 73.1167 30.7018 72.7165 30.2388 72.7165C29.7757 72.7165 29.3995 73.1167 29.3995 73.6093C29.3995 74.1019 29.7757 74.5022 30.2388 74.5022C30.7018 74.5022 31.078 74.1019 31.078 73.6093ZM61.0288 87.2315C61.0288 86.459 60.4395 85.832 59.7133 85.832H38.592C37.8659 85.832 37.2766 86.459 37.2766 87.2315C37.2766 88.004 37.8659 88.6309 38.592 88.6309H59.7133C60.4395 88.6309 61.0288 88.004 61.0288 87.2315ZM49.1527 74.5022C49.6157 74.5022 49.9919 74.1019 49.9919 73.6093C49.9919 73.1167 49.6157 72.7165 49.1527 72.7165C48.6896 72.7165 48.3134 73.1167 48.3134 73.6093C48.3134 74.1019 48.6896 74.5022 49.1527 74.5022ZM68.9059 73.6093C68.9059 73.1167 68.5296 72.7165 68.0666 72.7165C67.6035 72.7165 67.2273 73.1167 67.2273 73.6093C67.2273 74.1019 67.6035 74.5022 68.0666 74.5022C68.5296 74.5022 68.9059 74.1019 68.9059 73.6093ZM72.751 57.6445C71.2527 56.4675 69.6425 55.4277 67.9311 54.5755C64.8792 62.1661 57.6046 66.9899 48.9988 66.9899C40.3929 66.9899 33.117 62.1647 30.0651 54.5713C28.4313 55.3704 26.8922 56.308 25.4544 57.3506L29.6941 70.1905H49.15H68.6059L72.751 57.6445ZM88.4683 78.4094C87.8224 77.7181 86.5569 77.3668 84.7113 77.3668C82.8644 77.3668 81.6002 77.7167 80.9543 78.4094C80.4202 78.9818 80.2492 79.8844 80.1953 80.9214H83.2538C83.9799 80.9214 84.5692 81.5483 84.5692 82.3208C84.5692 83.0933 83.9799 83.7203 83.2538 83.7203H80.1716V86.2701H83.2538C83.9799 86.2701 84.5692 86.897 84.5692 87.6695C84.5692 88.442 83.9799 89.069 83.2538 89.069H80.1729V91.4312H83.2538C83.9799 91.4312 84.5692 92.0582 84.5692 92.8307C84.5692 93.6031 83.9799 94.2301 83.2538 94.2301H80.5728C81.2819 95.915 82.8657 97.0947 84.71 97.0947C87.212 97.0947 89.2484 94.9284 89.2484 92.2667L89.2497 82.5406C89.2589 80.8556 89.2681 79.2659 88.4683 78.4094ZM49.9604 34.3255V41.257H47.0295C46.3034 41.257 45.714 41.8839 45.714 42.6564C45.714 43.4289 46.3034 44.0559 47.0295 44.0559H51.2759C52.002 44.0559 52.5913 43.4289 52.5913 42.6564V34.3255C52.5913 33.553 52.002 32.9261 51.2759 32.9261C50.5497 32.9261 49.9604 33.553 49.9604 34.3255Z" fill="#4B5A8A"/>
</svg>
