<svg width="47" height="68" viewBox="0 0 47 68" fill="none" xmlns="http://www.w3.org/2000/svg">
<path d="M6.09267 32.5037C11.6205 34.5048 17.452 35.4681 23.3102 35.3479C29.1684 35.4674 35 34.5032 40.5276 32.5013C44.8424 30.768 46.3725 28.8417 46.3725 27.7331V19.2577C44.864 20.2981 43.2456 21.1588 41.5485 21.823C35.7 23.9799 29.5214 25.0314 23.3102 24.927C17.0994 25.0294 10.9215 23.9796 5.07185 21.8277C3.37387 21.1635 1.75531 20.3012 0.247803 19.2577V27.7212C0.247803 28.8512 1.78252 30.768 6.09267 32.5037Z" fill="black"/>
<path d="M6.09267 48.4889C8.04546 49.2559 10.0592 49.847 12.1112 50.2555C15.801 50.9907 19.5519 51.3524 23.3102 51.3355C27.0683 51.3532 30.8192 50.9923 34.5092 50.2579C36.5611 49.8493 38.5748 49.2583 40.5276 48.4913C44.8424 46.7581 46.3725 44.8317 46.3725 43.7231V35.6411C45.1256 36.4139 43.815 37.072 42.4559 37.6079C36.3119 39.8484 29.8268 40.9329 23.3102 40.8098C16.7928 40.9291 10.3077 39.8405 4.16444 37.596C2.80594 37.0587 1.49544 36.4006 0.247803 35.6292V43.7183C0.247803 44.8293 1.78252 46.7485 6.09267 48.4889Z" fill="black"/>
<path d="M23.3102 67.6547C36.0416 67.6547 46.3725 63.4969 46.3725 58.3711V51.6074C45.2381 52.3117 44.0498 52.9193 42.8193 53.4241L42.4559 53.5743C36.3131 55.8214 29.8279 56.9124 23.3102 56.7952C16.7921 56.9158 10.3064 55.8247 4.16444 53.5743C4.03945 53.5266 3.91908 53.4718 3.80102 53.4241C2.57053 52.9193 1.38217 52.3117 0.247803 51.6074V58.3711C0.247803 63.4969 10.5788 67.6547 23.3102 67.6547Z" fill="black"/>
<path d="M23.3102 19.4675C36.0471 19.4675 46.3725 15.3111 46.3725 10.1839C46.3725 5.05669 36.0471 0.900269 23.3102 0.900269C10.5732 0.900269 0.247803 5.05669 0.247803 10.1839C0.247803 15.3111 10.5732 19.4675 23.3102 19.4675Z" fill="black"/>
</svg>
