<svg width="150" height="150" viewBox="0 0 150 150" fill="none" xmlns="http://www.w3.org/2000/svg">
<path d="M129.234 108.084C129.196 108.075 129.158 108.066 129.121 108.059L104.421 103.121C104.564 100.501 103.352 97.8927 101.051 96.359L97.3626 93.9C105.739 85.8535 111.123 73.4015 111.123 59.4492C111.123 56.7787 110.923 54.1202 110.532 51.5119H119.06C120.402 51.5119 121.49 50.4243 121.49 49.0821C121.49 47.7398 120.402 46.6523 119.06 46.6523H116.307V43.8985C116.307 34.3549 112.975 25.0458 106.925 17.6857C105.812 16.3309 104.616 15.0531 103.348 13.858V12.797C103.348 11.4548 102.26 10.3672 100.918 10.3672C100.442 10.3672 99.9998 10.5058 99.625 10.7423C95.2785 7.51426 90.322 5.1473 85.0555 3.82678C84.5174 1.6338 82.5402 0 80.1836 0H69.8164C67.4598 0 65.4826 1.6338 64.9445 3.82678C59.678 5.1473 54.7215 7.51426 50.3751 10.7423C50.0002 10.5058 49.558 10.3672 49.0821 10.3672C47.7402 10.3672 46.6523 11.4548 46.6523 12.797V13.858C45.3859 15.0515 44.191 16.3276 43.0785 17.6809C37.0264 25.0419 33.6933 34.3526 33.6933 43.8985V46.6523H30.9395C29.5976 46.6523 28.5097 47.7398 28.5097 49.0821C28.5097 50.4243 29.5976 51.5119 30.9395 51.5119H39.4678C39.0768 54.1202 38.8769 56.7784 38.8769 59.4492C38.8769 73.4015 44.2614 85.8535 52.6371 93.9L48.9486 96.359C46.6477 97.8927 45.4354 100.501 45.579 103.121L20.8792 108.059C20.8413 108.066 20.8037 108.075 20.7661 108.084C11.5915 110.378 5.18359 118.585 5.18359 128.042V142.387C5.18359 146.585 8.59893 150 12.797 150H137.203C141.401 150 144.816 146.585 144.816 142.387V128.042C144.816 118.585 138.409 110.378 129.234 108.084ZM41.1447 108.964L47.1904 107.755L56.9553 127.286C57.4257 128.225 57.8323 129.035 59.0595 129.235C59.1894 129.255 59.3197 129.266 59.4493 129.266C60.083 129.266 60.6975 129.018 61.156 128.566C61.9912 127.741 62.8166 126.984 63.6259 126.283C67.0869 128.237 70.9882 129.266 75 129.266C79.0186 129.266 82.9141 128.238 86.3744 126.283C87.1837 126.984 88.0089 127.741 88.8438 128.565C89.3022 129.018 89.9167 129.266 90.5504 129.266C90.68 129.266 90.8103 129.255 90.9402 129.234C92.1674 129.035 92.574 128.225 93.0444 127.286L102.809 107.755L111.447 109.482V145.14H41.1447V108.964ZM36.2851 145.14H30.7775V111.036L36.2851 109.935V145.14ZM74.9994 119.057C76.2075 119.538 78.8281 120.715 82.108 122.973C79.8749 123.915 77.4671 124.406 75 124.406C72.5362 124.406 70.1255 123.916 67.8907 122.974C71.1729 120.714 73.7952 119.536 74.9994 119.057ZM116.307 110.453L121.814 111.554V145.14H116.307V110.453ZM99.2926 103.922C94.1145 114.285 91.2979 119.919 89.8328 122.846C85.6652 119.182 81.8673 116.934 79.2619 115.643L96.0437 98.861L98.3556 100.402C99.5083 101.171 99.9114 102.684 99.2926 103.922ZM111.447 43.8985V46.6523H103.348V20.9964C108.57 27.4536 111.447 35.573 111.447 43.8985ZM85.2052 46.6523V8.90572C90.0745 10.3276 94.6063 12.7714 98.4881 16.0425V46.6523H85.2052ZM69.8164 4.85961H80.1836C80.273 4.85961 80.3456 4.93251 80.3456 5.0216V46.6523H69.6544V5.0216C69.6544 4.93251 69.727 4.85961 69.8164 4.85961ZM51.5119 46.6523V16.0419C55.3937 12.7711 59.9255 10.3273 64.7948 8.90508V46.6523H51.5119ZM38.5529 43.8985C38.5529 35.573 41.4298 27.4536 46.6523 20.9961V46.6523H42.3875C42.3794 46.6523 42.371 46.6523 42.3629 46.6523H38.5529V43.8985ZM105.611 51.5119C106.042 54.1114 106.264 56.7722 106.264 59.4492C106.264 59.5063 106.262 59.5626 106.262 59.6193C106.209 59.6158 106.156 59.6112 106.102 59.6112H98.1642V56.8574C98.1642 55.5152 97.0763 54.4276 95.7344 54.4276H80.1836C78.8417 54.4276 77.7538 55.5152 77.7538 56.8574V57.5368C76.8991 57.2041 75.971 57.0194 75 57.0194C74.0291 57.0194 73.1009 57.2041 72.2462 57.5368V56.8574C72.2462 55.5152 71.1583 54.4276 69.8164 54.4276H54.2657C52.9238 54.4276 51.8359 55.5152 51.8359 56.8574V59.6112H43.8985C43.8444 59.6112 43.7916 59.6158 43.7381 59.6193C43.7378 59.5626 43.7365 59.5063 43.7365 59.4492C43.7365 56.7722 43.9581 54.1114 44.3887 51.5119H105.611ZM43.9944 64.4708H51.8359V64.6328C51.8359 65.9751 52.9238 67.0626 54.2657 67.0626C55.6076 67.0626 56.6955 65.9751 56.6955 64.6328V59.2873H59.6112V62.041C59.6112 63.3833 60.6991 64.4708 62.041 64.4708C63.3829 64.4708 64.4709 63.3833 64.4709 62.041V59.2873H67.3866V64.6328C67.3866 65.9751 68.4745 67.0626 69.8164 67.0626C71.1583 67.0626 72.2462 65.9751 72.2462 64.6328C72.2462 63.1144 73.4815 61.879 75 61.879C76.5185 61.879 77.7538 63.1144 77.7538 64.6328C77.7538 65.9751 78.8417 67.0626 80.1836 67.0626C81.5255 67.0626 82.6134 65.9751 82.6134 64.6328V59.2873H85.5292V62.041C85.5292 63.3833 86.6171 64.4708 87.959 64.4708C89.3009 64.4708 90.3888 63.3833 90.3888 62.041V59.2873H93.3046V64.6328C93.3046 65.9751 94.3925 67.0626 95.7344 67.0626C97.0763 67.0626 98.1642 65.9751 98.1642 64.6328V64.4708H106.006C104.026 83.6339 90.8764 98.4881 75 98.4881C59.1237 98.4881 45.9739 83.6339 43.9944 64.4708ZM75 103.348C79.3212 103.348 83.4674 102.42 87.3114 100.721L75 113.032L62.6887 100.721C66.5326 102.42 70.6788 103.348 75 103.348ZM51.6444 100.402L53.9563 98.861L70.7381 115.643C68.1327 116.934 64.3348 119.182 60.1672 122.846C58.7022 119.919 55.8855 114.285 50.7075 103.922C50.0887 102.684 50.4917 101.171 51.6444 100.402ZM10.0432 142.387V128.042C10.0432 120.838 14.9119 114.583 21.8909 112.812L25.9179 112.007V145.14H12.797C11.2785 145.14 10.0432 143.905 10.0432 142.387ZM139.957 142.387C139.957 143.905 138.722 145.14 137.203 145.14H126.674V112.525L128.109 112.812C135.088 114.583 139.957 120.837 139.957 128.042V142.387Z" fill="#4B5A8A"/>
<path d="M63.266 84.7128C66.1461 86.6728 70.4229 87.797 75 87.797C79.5771 87.797 83.8542 86.6728 86.734 84.7128C87.8436 83.9579 88.131 82.4466 87.3758 81.337C86.6209 80.228 85.1093 79.9406 84 80.6955C81.9369 82.0993 78.5724 82.9374 74.9997 82.9374C71.4269 82.9374 68.0624 82.0993 65.9993 80.6955C64.8901 79.9403 63.3787 80.228 62.6235 81.337C61.869 82.4466 62.1564 83.9579 63.266 84.7128Z" fill="#4B5A8A"/>
</svg>
