<svg width="24" height="24" viewBox="0 0 24 24" fill="none" xmlns="http://www.w3.org/2000/svg">
<path d="M12 0.00074999C5.37075 0.00074999 0 5.376 0 12.0008C0 17.3055 3.438 21.8018 8.20275 23.388C8.805 23.5013 9.0225 23.13 9.0225 22.809C9.0225 22.524 9.01575 21.7703 9.01125 20.7698C5.6715 21.4928 4.968 19.1565 4.968 19.1565C4.42125 17.7735 3.63225 17.4023 3.63225 17.4023C2.54625 16.6605 3.7185 16.6763 3.7185 16.6763C4.9215 16.758 5.5545 17.91 5.5545 17.91C6.62475 19.746 8.3625 19.215 9.05025 18.906C9.15525 18.1328 9.468 17.601 9.8085 17.3048C7.1445 17.004 4.34325 15.9728 4.34325 11.3745C4.34325 10.0613 4.80825 8.99175 5.577 8.15175C5.44425 7.851 5.03775 6.6285 5.68275 4.9755C5.68275 4.9755 6.687 4.65525 8.98275 6.20625C9.9435 5.94 10.9635 5.80725 11.9827 5.8005C13.0028 5.80725 14.022 5.94075 14.9827 6.20625C17.265 4.65525 18.2685 4.9755 18.2685 4.9755C18.9128 6.6285 18.5062 7.85025 18.3892 8.15175C19.1505 8.99175 19.6155 10.062 19.6155 11.3745C19.6155 15.9833 16.8105 16.9995 14.1435 17.2928C14.5605 17.652 14.9513 18.3908 14.9513 19.512C14.9513 21.117 14.9363 22.41 14.9363 22.8008C14.9363 23.1128 15.1462 23.4878 15.7642 23.367C20.5642 21.7973 23.9985 17.2973 23.9985 12C23.9985 5.37525 18.6278 0 11.9985 0L12 0.00074999Z" fill="white"/>
</svg>
