<svg width="150" height="150" viewBox="0 0 150 150" fill="none" xmlns="http://www.w3.org/2000/svg">
<g clip-path="url(#clip0_126_463)">
<path d="M130.095 59.6074C130.279 59.5647 130.465 59.5242 130.649 59.4809C131.922 59.18 132.71 57.9044 132.41 56.6314C132.109 55.3585 130.833 54.5713 129.56 54.871C125.941 55.7262 122.274 56.4103 118.578 56.9273V11.8421C118.578 5.31211 113.266 0 106.736 0H49.8941C43.3642 0 38.052 5.31211 38.052 11.8421V36.5944C38.052 37.9025 39.1126 38.9628 40.4204 38.9628C41.7285 38.9628 42.7888 37.9022 42.7888 36.5944V11.8421C42.7888 7.92422 45.976 4.73672 49.8941 4.73672H106.736C110.654 4.73672 113.842 7.92393 113.842 11.8421V57.4975C109.809 57.9015 105.749 58.1054 101.684 58.1054C75.8602 58.1054 51.2283 50.0725 30.4504 34.875C29.3948 34.103 27.9127 34.3324 27.1407 35.3886C26.3687 36.4441 26.5984 37.9263 27.6543 38.6982C30.8365 41.0259 34.1078 43.1871 37.4553 45.1884C37.385 45.2994 37.3164 45.4119 37.2464 45.5235C37.1134 45.7365 36.9815 45.9495 36.8512 46.1643C36.7659 46.3046 36.6818 46.4449 36.5975 46.5858C36.4715 46.7974 36.3467 47.0098 36.2233 47.2228C36.1413 47.3645 36.0593 47.5063 35.9778 47.6487C35.8521 47.8693 35.7291 48.0914 35.6061 48.3141C35.5319 48.4482 35.4569 48.5821 35.384 48.7169C35.2457 48.9721 35.1101 49.2287 34.9756 49.4859C34.9217 49.5891 34.8663 49.6916 34.8127 49.7947C34.6272 50.1533 34.4456 50.514 34.2678 50.8764C34.225 50.9634 34.184 51.0513 34.1421 51.1386C34.0073 51.4166 33.8737 51.6949 33.7431 51.9747C33.6792 52.1115 33.6177 52.2489 33.5553 52.3857C33.4489 52.6184 33.3432 52.8516 33.2395 53.0856C33.1732 53.2356 33.1082 53.3862 33.0432 53.5368C32.9462 53.7606 32.8504 53.9853 32.7563 54.2103C32.6922 54.3639 32.6289 54.5177 32.5659 54.6718C32.4733 54.8985 32.3828 55.1256 32.2935 55.3529C32.234 55.5038 32.1745 55.6547 32.1162 55.8062C32.0233 56.0481 31.9331 56.2904 31.8435 56.533C31.7934 56.6692 31.7418 56.8046 31.6929 56.9411C31.581 57.2511 31.4726 57.5622 31.3659 57.8736C31.3422 57.9425 31.3173 58.0113 31.2938 58.0802C31.1731 58.4376 31.056 58.7959 30.9426 59.1545C29.3693 58.6673 27.7334 58.4212 26.0529 58.4212C16.9111 58.4212 9.47412 65.8582 9.47412 75C9.47412 84.1418 16.9111 91.5788 26.0529 91.5788C27.361 91.5788 28.4213 90.5183 28.4213 89.2105C28.4213 87.9023 27.3607 86.8421 26.0529 86.8421C19.5229 86.8421 14.2108 81.53 14.2108 75C14.2108 68.47 19.5229 63.1579 26.0529 63.1579C27.9353 63.1579 29.7385 63.59 31.4122 64.4414C32.8905 65.1932 34.1743 66.2288 35.2278 67.5185C36.1885 68.6941 37.6117 69.3683 39.1334 69.3683C41.3509 69.3683 43.3416 67.8835 43.9744 65.7568C44.9195 62.5784 46.3478 59.5717 48.2189 56.8201C48.9543 55.7385 48.6736 54.2654 47.592 53.5298C46.5101 52.7944 45.0373 53.0751 44.3017 54.1567C42.1562 57.312 40.5186 60.7605 39.434 64.4062C39.3938 64.541 39.2729 64.6315 39.1331 64.6315C39.0396 64.6315 38.9532 64.5914 38.8955 64.5214C37.844 63.2347 36.6276 62.1287 35.2653 61.2179C35.2946 61.1203 35.3233 61.0228 35.3535 60.9255C35.401 60.772 35.449 60.6185 35.4977 60.4655C35.5633 60.259 35.631 60.0524 35.6995 59.8465C35.7496 59.6953 35.8 59.5436 35.8519 59.3927C35.9239 59.1823 35.998 58.9726 36.0725 58.7631C36.1243 58.6178 36.1753 58.4722 36.228 58.3274C36.3092 58.1057 36.393 57.8848 36.477 57.6639C36.5271 57.5317 36.5764 57.3999 36.6273 57.2681C36.7272 57.0117 36.8304 56.7565 36.9344 56.5014C36.9733 56.4059 37.0105 56.3101 37.0501 56.2146C37.1942 55.8665 37.3416 55.5199 37.4928 55.1739C37.5323 55.0837 37.5739 54.9943 37.6141 54.9038C37.7277 54.648 37.842 54.3926 37.9595 54.1383C38.0204 54.0067 38.0837 53.8758 38.1455 53.7448C38.2457 53.5327 38.3456 53.3206 38.4487 53.11C38.5182 52.9673 38.5896 52.8255 38.6603 52.6837C38.7587 52.4856 38.858 52.2876 38.9591 52.091C39.0344 51.9445 39.1108 51.7986 39.1873 51.6527C39.2878 51.4614 39.3889 51.2701 39.4917 51.08C39.5705 50.9338 39.6499 50.7882 39.7302 50.6429C39.8348 50.453 39.9405 50.2644 40.0472 50.0757C40.1283 49.9327 40.2098 49.7892 40.2921 49.6468C40.402 49.4566 40.5136 49.268 40.6255 49.0793C40.7075 48.941 40.7893 48.8027 40.8727 48.6653C40.9908 48.4705 41.1112 48.2769 41.2319 48.0838C41.3122 47.9552 41.3913 47.826 41.4725 47.6982C41.5053 47.6467 41.539 47.596 41.5721 47.5444C59.9131 57.5897 80.4089 62.8421 101.684 62.8421C105.563 62.8421 109.437 62.661 113.289 62.3071C112.945 62.5966 112.611 62.8998 112.289 63.218C106.15 69.2883 98.2466 72.6316 90.0349 72.6316H89.2108C80.205 72.6316 71.819 68.9886 65.7226 62.5354C65.7719 62.4349 65.817 62.332 65.8527 62.2225C66.2579 60.9788 65.5776 59.6423 64.3337 59.2374C60.9862 58.1476 57.4442 58.1476 54.0892 59.2377C52.8452 59.642 52.1641 60.9779 52.5687 62.2219C52.8938 63.2227 53.8223 63.8593 54.8204 63.8593C55.063 63.8593 55.3097 63.8218 55.5528 63.7427C57.0197 63.266 58.5358 63.0826 60.0396 63.189C66.5954 71.5271 76.1553 76.5668 86.6371 77.2778C87.4428 78.743 88.9999 79.737 90.7899 79.737C92.6898 79.737 94.3237 78.6161 95.0787 77.0016C102.693 75.8936 109.849 72.2933 115.62 66.5862C116.495 65.7202 117.494 64.9992 118.587 64.4423C118.587 64.442 118.588 64.442 118.588 64.4417C120.262 63.59 122.066 63.1582 123.948 63.1582C130.478 63.1582 135.79 68.4703 135.79 75.0003C135.79 81.5303 130.478 86.8421 123.948 86.8421C122.871 86.8421 121.817 86.6971 120.796 86.4141C121.291 82.2536 121.579 78.0967 121.579 74.9997C121.579 73.6937 122.641 72.6313 123.948 72.6313C125.254 72.6313 126.316 73.6937 126.316 74.9997C126.316 76.3078 127.376 77.3681 128.684 77.3681C129.993 77.3681 131.053 76.3075 131.053 74.9997C131.053 71.0818 127.865 67.8943 123.947 67.8943C120.029 67.8943 116.842 71.0821 116.842 75C116.842 78.3706 116.475 83.1123 115.861 87.6835V87.6838C114.538 97.5217 112.292 105.01 110 107.226C103.543 113.472 87.1879 116.842 75.0771 116.842C62.8917 116.842 46.4564 113.472 39.9991 107.226C37.7081 105.009 35.4628 97.5214 34.1394 87.6838C33.5248 83.1138 33.158 78.3721 33.158 75C33.158 71.0821 29.9708 67.8946 26.0526 67.8946C22.1345 67.8946 18.9476 71.0821 18.9476 75C18.9476 76.3081 20.0081 77.3684 21.3159 77.3684C22.624 77.3684 23.6843 76.3078 23.6843 75C23.6843 73.6939 24.7466 72.6316 26.0526 72.6316C27.3587 72.6316 28.421 73.6939 28.421 75C28.421 78.5707 28.8036 83.5482 29.4452 88.3151C30.5239 96.3346 32.6594 106.716 36.7061 110.63C39.5644 113.395 43.7471 115.604 48.5386 117.296C46.6858 118.912 44.9875 120.689 43.4597 122.615C42.5031 121.646 41.2337 121.037 39.8547 120.923C38.171 120.784 36.5166 121.389 35.3204 122.585C34.7857 123.12 34.3759 123.735 34.0943 124.393C33.6991 124.305 33.2945 124.248 32.8847 124.223C32.7821 124.218 32.6802 124.215 32.5776 124.213L22.8807 110.637C22.1201 109.572 20.6406 109.326 19.5769 110.087C18.5122 110.846 18.2658 112.326 19.0261 113.39L27.8365 125.725C27.5327 125.95 27.2433 126.197 26.9726 126.468C24.7357 128.704 23.5038 131.678 23.5038 134.842C23.5038 138.005 24.7357 140.979 26.9726 143.215L28.8358 145.079C30.5749 146.818 32.8867 147.775 35.3462 147.775C37.7512 147.775 40.0138 146.858 41.7391 145.191L42.6177 146.421C43.08 147.068 43.808 147.413 44.5472 147.413C45.0232 147.413 45.5043 147.27 45.9215 146.972C46.9861 146.212 47.2325 144.733 46.4726 143.668L44.3148 140.646C44.5943 139.446 44.6307 138.216 44.427 137.022C45.3543 136.758 46.2098 136.26 46.9088 135.56C46.9422 135.527 46.9709 135.491 47.0034 135.457C47.045 136.296 47.5334 137.087 48.344 137.476C48.6748 137.635 49.024 137.71 49.368 137.71C50.2501 137.71 51.0974 137.215 51.5046 136.367C52.7582 133.756 54.4308 131.385 56.4748 129.317C57.3944 128.387 57.3859 126.887 56.4555 125.968C55.5247 125.048 54.0256 125.057 53.1062 125.987C51.3607 127.752 49.849 129.708 48.5828 131.821C48.6534 130.555 48.3083 129.264 47.5211 128.162L46.3891 126.577C48.4331 123.803 50.8583 121.346 53.6172 119.263C53.7473 119.165 53.8644 119.055 53.9682 118.938C55.9407 119.444 57.9648 119.872 60.0007 120.23V123.326C60.0007 125.488 61.1186 127.449 62.9145 128.559C61.8798 129.601 61.3094 130.986 61.3094 132.464C61.3094 133.948 61.8842 135.339 62.9274 136.383L72.6326 146.087V147.632C72.6326 148.94 73.6932 150.001 75.001 150.001C76.3094 150.001 77.3693 148.94 77.3693 147.632V146.087L87.0739 136.382C88.1175 135.339 88.6923 133.947 88.6923 132.463C88.6923 130.986 88.1216 129.6 87.0868 128.558C88.883 127.448 90.001 125.488 90.001 123.325V120.243C92.0394 119.885 94.0671 119.455 96.0432 118.947C96.1448 119.061 96.2582 119.167 96.3845 119.263C102.676 124.013 107.264 130.798 109.304 138.367C109.589 139.424 110.545 140.12 111.59 140.12C111.793 140.12 112.001 140.093 112.207 140.038C113.47 139.697 114.218 138.398 113.878 137.135C111.814 129.478 107.448 122.536 101.468 117.305C106.252 115.613 110.432 113.401 113.295 110.632C116.88 107.164 118.965 98.6206 120.144 91.1405C121.383 91.4329 122.654 91.5806 123.948 91.5806C133.089 91.5806 140.527 84.1436 140.527 75.0018C140.526 68.03 136.201 62.0549 130.095 59.6074ZM39.5043 140.207C39.2796 140.779 38.9436 141.291 38.5056 141.729C37.6618 142.573 36.5395 143.038 35.345 143.038C34.1509 143.038 33.0288 142.573 32.1842 141.729L30.3209 139.865C27.5506 137.095 27.5506 132.587 30.3209 129.817C30.886 129.251 31.6229 128.946 32.4124 128.946C32.4742 128.946 32.5363 128.948 32.5984 128.952C33.4436 129.003 34.2273 129.411 34.7526 130.071L38.173 134.836V134.837L38.9822 135.969C39.8664 137.208 40.0615 138.791 39.5043 140.207ZM43.5584 132.211C43.2716 132.498 42.9379 132.517 42.7642 132.502C42.5907 132.488 42.2649 132.415 42.0294 132.086L42.0285 132.084C42.0276 132.083 42.027 132.083 42.0262 132.081C42.0259 132.081 42.0256 132.081 42.0253 132.08L38.6957 127.441C38.655 127.369 38.6107 127.299 38.5624 127.231C38.275 126.829 38.3198 126.284 38.669 125.935C38.9564 125.648 39.2904 125.63 39.4636 125.644C39.637 125.658 39.9634 125.732 40.1995 126.062L43.6659 130.915C43.953 131.317 43.9079 131.862 43.5584 132.211ZM64.7368 123.325V120.933C65.7979 121.061 66.8526 121.168 67.8977 121.258C67.8962 122.148 67.8947 122.983 67.8947 123C67.8947 123.192 67.9076 123.381 67.9226 123.57L67.1629 124.33C66.5564 124.936 65.8779 124.747 65.6143 124.638C65.3506 124.529 64.7368 124.182 64.7368 123.325ZM72.6317 139.388L66.2761 133.032C66.0853 132.841 66.0455 132.617 66.0455 132.462C66.0455 132.308 66.0853 132.084 66.2761 131.893C66.9382 131.231 67.1239 130.275 66.838 129.446C68.0008 129.317 69.1196 128.859 70.0536 128.095C70.7995 128.82 71.6772 129.357 72.6317 129.694V139.388V139.388ZM76.6747 124.675C76.2276 125.122 75.6326 125.368 75.0001 125.368C74.3676 125.368 73.7728 125.122 73.3255 124.675C72.8781 124.227 72.6317 123.633 72.6317 123.001C72.6317 122.967 72.6326 122.302 72.6344 121.54C73.4632 121.566 74.2791 121.579 75.0774 121.579C75.8269 121.579 76.5927 121.567 77.3693 121.543C77.369 122.132 77.369 122.662 77.3687 122.886V123C77.3684 123.633 77.1221 124.228 76.6747 124.675ZM83.7238 133.032L77.3685 139.388V129.694C78.3229 129.357 79.2007 128.819 79.9466 128.094C80.8806 128.859 81.9994 129.317 83.1622 129.445C82.8766 130.275 83.0617 131.231 83.7241 131.893C83.9148 132.083 83.9547 132.308 83.9547 132.462C83.9547 132.616 83.9145 132.841 83.7238 133.032ZM85.2637 123.325H85.2634C85.2634 124.182 84.6502 124.529 84.3862 124.638C84.1228 124.747 83.4443 124.936 82.8379 124.33L82.0782 123.57C82.0932 123.381 82.106 123.192 82.106 123V122.888C82.1063 122.241 82.1063 121.709 82.1066 121.268C83.1499 121.179 84.2034 121.072 85.264 120.944V123.325H85.2637Z" fill="#4B5A8A"/>
<path d="M105.202 141.623C104.03 135.705 101.157 130.298 96.895 125.986C95.9748 125.056 94.4751 125.048 93.5458 125.967C92.6156 126.887 92.6066 128.386 93.5262 129.316C97.1338 132.965 99.564 137.539 100.555 142.542C100.778 143.67 101.768 144.451 102.876 144.451C103.028 144.451 103.183 144.436 103.338 144.406C104.621 144.152 105.456 142.906 105.202 141.623Z" fill="#4B5A8A"/>
<path d="M20.0488 106.674L13.992 98.1938C13.2317 97.1292 11.7525 96.8822 10.6882 97.643C9.62353 98.4033 9.37714 99.8822 10.1374 100.947L16.1942 109.427C16.6565 110.075 17.3846 110.419 18.1234 110.419C18.5995 110.419 19.0809 110.276 19.498 109.978C20.5627 109.218 20.8094 107.738 20.0488 106.674Z" fill="#4B5A8A"/>
<path d="M63.9476 70.2633H54.4738C53.1657 70.2633 52.1055 71.3239 52.1055 72.6317C52.1055 73.9398 53.166 75 54.4738 75C54.4738 77.6159 56.5946 79.7367 59.2105 79.7367C61.8265 79.7367 63.9473 77.6159 63.9473 75C65.2554 75 66.3156 73.9395 66.3156 72.6317C66.3159 71.3236 65.2554 70.2633 63.9476 70.2633Z" fill="#4B5A8A"/>
<path d="M78.4738 82.1053H71.5263C70.2182 82.1053 69.158 83.1659 69.158 84.4737C69.158 85.7818 70.2185 86.8421 71.5263 86.8421H78.4738C79.7819 86.8421 80.8421 85.7815 80.8421 84.4737C80.8421 83.1656 79.7816 82.1053 78.4738 82.1053Z" fill="#4B5A8A"/>
</g>
<defs>
<clipPath id="clip0_126_463">
<rect width="150" height="150" fill="white"/>
</clipPath>
</defs>
</svg>
