<svg width="93" height="100" viewBox="0 0 93 100" fill="none" xmlns="http://www.w3.org/2000/svg">
<path d="M44.1743 24.9775C40.7539 24.9775 37.9724 27.9684 37.9724 31.6462C37.9724 35.324 40.7539 38.3149 44.1743 38.3149C47.5946 38.3149 50.3761 35.324 50.3761 31.6462C50.3761 27.9684 47.5946 24.9775 44.1743 24.9775ZM44.1743 34.9805C42.4641 34.9805 41.0733 33.4851 41.0733 31.6462C41.0733 29.8073 42.4641 28.3119 44.1743 28.3119C45.8844 28.3119 47.2752 29.8073 47.2752 31.6462C47.2752 33.4851 45.8844 34.9805 44.1743 34.9805Z" fill="#4B5A8A"/>
<path d="M61.2294 24.9775C57.8091 24.9775 55.0276 27.9684 55.0276 31.6462C55.0276 35.324 57.8091 38.3149 61.2294 38.3149C64.6498 38.3149 67.4313 35.324 67.4313 31.6462C67.4313 27.9684 64.6498 24.9775 61.2294 24.9775ZM61.2294 34.9805C59.5193 34.9805 58.1285 33.4851 58.1285 31.6462C58.1285 29.8073 59.5193 28.3119 61.2294 28.3119C62.9396 28.3119 64.3304 29.8073 64.3304 31.6462C64.3304 33.4851 62.9396 34.9805 61.2294 34.9805Z" fill="#4B5A8A"/>
<path d="M78.2846 24.9775C74.8643 24.9775 72.0828 27.9684 72.0828 31.6462C72.0828 35.324 74.8643 38.3149 78.2846 38.3149C81.705 38.3149 84.4865 35.324 84.4865 31.6462C84.4865 27.9684 81.705 24.9775 78.2846 24.9775ZM78.2846 34.9805C76.5745 34.9805 75.1837 33.4851 75.1837 31.6462C75.1837 29.8073 76.5745 28.3119 78.2846 28.3119C79.9948 28.3119 81.3856 29.8073 81.3856 31.6462C81.3856 33.4851 79.9948 34.9805 78.2846 34.9805Z" fill="#4B5A8A"/>
<path d="M60.4542 0C42.9278 0 28.6697 13.8225 28.6697 30.8126C28.6697 32.5064 28.8278 34.1836 29.1085 35.8341C27.1409 35.2839 24.9455 34.9805 22.5004 34.9805C16.2427 34.9805 11.5758 36.756 8.62838 40.2587C4.98168 44.5934 5.43132 49.9266 5.44527 49.985V54.5464C4.5398 55.7567 3.90566 57.5723 3.90566 59.0894V65.0012C3.90566 66.8384 4.67314 68.5506 5.98638 69.7059C7.25621 74.8291 10.275 77.9517 11.6471 79.1554V83.7285C11.6471 85.0505 10.0982 87.783 8.88265 88.4999L2.40791 92.9512C1.06365 93.8748 0.460524 95.6003 0.908608 97.2458C1.35514 98.893 2.7273 99.9983 4.32273 99.9983H40.678C42.2735 99.9983 43.6456 98.893 44.0922 97.2458C44.5403 95.6003 43.9371 93.8748 42.5929 92.9512L36.0251 88.4415C34.901 87.7813 33.3521 85.0505 33.3521 83.7285V79.1554C34.7258 77.9517 37.7446 74.8291 39.0144 69.7059C40.3276 68.5506 41.0936 66.8367 41.0936 65.0012V62.1687C43.3262 61.3484 45.6349 60.3264 47.728 59.0544C51.753 60.7616 56.0292 61.6268 60.4527 61.6268C77.9791 61.6268 92.2372 47.8043 92.2372 30.8142C92.2372 13.8241 77.9807 0 60.4542 0ZM37.9942 65.0012C37.9942 65.9364 37.5492 66.8017 36.8034 67.3202L36.2747 67.6886L36.1336 68.3488C34.9258 74.0072 30.9814 76.9131 30.9458 76.9381L30.2512 77.4316V83.7301C30.2512 86.2675 32.4156 90.1237 34.4467 91.3124L40.923 95.7637H40.9246C41.1153 95.8954 41.1804 96.0788 41.1168 96.3139C41.0517 96.549 40.9044 96.6673 40.678 96.6673H4.32273C4.09636 96.6673 3.94907 96.549 3.8855 96.3139C3.82038 96.0788 3.8855 95.8954 4.07776 95.7637L10.461 91.3707C12.5836 90.1237 14.7481 86.2675 14.7481 83.7301V77.4316L14.0535 76.9381C14.0147 76.9097 10.0874 74.0622 8.86715 68.3488L8.72605 67.6886L8.19735 67.3202C7.45157 66.8017 7.00504 65.9348 7.00504 65.0012V59.0894C7.00504 58.2691 7.52444 56.9287 8.03455 56.4336L8.54465 55.9368L8.5369 49.8266C8.5338 49.7866 8.2237 45.6754 10.9572 42.4611C13.2953 39.7102 17.1792 38.3148 22.4988 38.3148C25.4199 38.3148 27.9348 38.7466 29.9876 39.5969C30.8202 42.3127 32.0358 44.9168 33.6234 47.3359C33.5986 47.6293 33.5614 47.901 33.5319 48.1878C32.8621 54.8431 31.3194 59.7796 29.124 62.1436L25.8416 65.673L30.4388 64.9728C30.4527 64.9712 30.5209 64.9595 30.5845 64.9495C30.6047 64.9462 30.6124 64.9445 30.6372 64.9411C30.6403 64.9411 30.645 64.9395 30.6481 64.9395C31.4559 64.8078 34.4018 64.2876 37.9957 63.2056V65.0012H37.9942ZM60.4542 58.2925C57.2432 58.2925 54.119 57.7923 51.1313 56.8037C54.7098 54.3713 54.7191 54.1179 54.7128 53.2326C54.7082 52.6491 54.4167 52.099 53.9516 51.8022C53.274 51.3671 52.4042 51.5538 51.9313 52.2107C51.2956 52.7325 48.8738 54.3997 46.8086 55.7701H46.807C44.3542 57.3639 41.4471 58.5726 38.7431 59.4762C38.4469 59.5762 38.1523 59.6712 37.8624 59.7629C37.6205 59.8396 37.3833 59.9113 37.1476 59.983C36.8779 60.0647 36.6081 60.1464 36.346 60.2214C36.1135 60.2881 35.8887 60.3481 35.6638 60.4098C35.4096 60.4798 35.1506 60.5515 34.9072 60.6149C34.7382 60.6582 34.5847 60.6949 34.4219 60.7366C34.163 60.8016 33.8963 60.8699 33.6544 60.9266C35.6049 56.8037 36.4282 51.3554 36.7678 47.0024L36.8174 46.3772L36.4701 45.8721C36.0623 45.2769 35.6809 44.6651 35.3227 44.0399C35.2762 43.9599 35.2375 43.8765 35.1925 43.7965C34.8762 43.2313 34.5754 42.6578 34.301 42.0693C34.2855 42.0359 34.2715 42.0009 34.256 41.9676C33.6513 40.6555 33.1474 39.2935 32.7552 37.8847L32.7055 37.708C32.0993 35.4706 31.7722 33.16 31.7722 30.8126C31.7706 15.6614 44.6379 3.33433 60.4542 3.33433C76.2705 3.33433 89.1378 15.6614 89.1378 30.8126C89.1378 45.9638 76.2705 58.2925 60.4542 58.2925Z" fill="#4B5A8A"/>
</svg>
