<svg width="150" height="150" viewBox="0 0 150 150" fill="none" xmlns="http://www.w3.org/2000/svg">
<g clip-path="url(#clip0_126_489)">
<path d="M21.8645 37.305H20.888V20.9614C20.888 20.1131 20.3853 19.3454 19.6075 19.0065C18.8308 18.6676 17.9256 18.8216 17.3042 19.3986L12.8146 23.5671C11.9519 24.3685 11.902 25.7179 12.7035 26.5812C13.5046 27.4442 14.854 27.4941 15.7169 26.6926L16.6225 25.852V37.305H15.6548C14.4768 37.305 13.522 38.2598 13.522 39.4377C13.522 40.6154 14.4768 41.5702 15.6548 41.5702H21.8645C23.0425 41.5702 23.9972 40.6154 23.9972 39.4377C23.9972 38.2598 23.0421 37.305 21.8645 37.305Z" fill="#4B5A8A"/>
<path d="M52.2595 37.305H51.2915V20.9614C51.2915 20.1131 50.7888 19.346 50.0119 19.0068C49.2347 18.6676 48.3304 18.8207 47.7089 19.3971L43.2123 23.5656C42.3488 24.3664 42.2973 25.7161 43.0981 26.5797C43.899 27.4436 45.248 27.4947 46.1119 26.6942L47.0263 25.8462V37.305H46.0583C44.8804 37.305 43.9256 38.2598 43.9256 39.4377C43.9256 40.6154 44.8804 41.5702 46.0583 41.5702H52.2598C53.4374 41.5702 54.3922 40.6154 54.3922 39.4377C54.3919 38.2598 53.4371 37.305 52.2595 37.305Z" fill="#4B5A8A"/>
<path d="M38.4505 28.2891H35.3336V25.1703C35.3336 23.9923 34.3788 23.0375 33.2008 23.0375C32.0229 23.0375 31.0681 23.9923 31.0681 25.1703V28.2891H27.9511C26.7732 28.2891 25.8184 29.2439 25.8184 30.4218C25.8184 31.5995 26.7732 32.5543 27.9511 32.5543H31.0687V35.6727C31.0687 36.8507 32.0235 37.8055 33.2014 37.8055C34.3794 37.8055 35.3342 36.8507 35.3342 35.6727V32.5543H38.4511C39.6291 32.5543 40.5839 31.5995 40.5839 30.4218C40.5833 29.2439 39.6285 28.2891 38.4505 28.2891Z" fill="#4B5A8A"/>
<path d="M75.8557 35.4171H63.8263C62.6486 35.4171 61.6938 34.4626 61.6938 33.2847C61.6938 32.107 62.6486 31.1522 63.8263 31.1522H75.8557C77.0336 31.1522 77.9884 32.107 77.9884 33.2847C77.9884 34.4626 77.0336 35.4171 75.8557 35.4171Z" fill="#4B5A8A"/>
<path d="M75.8557 41.5444H63.8263C62.6486 41.5444 61.6938 40.5896 61.6938 39.4117C61.6938 38.2337 62.6486 37.2789 63.8263 37.2789H75.8557C77.0336 37.2789 77.9884 38.2337 77.9884 39.4117C77.9884 40.5896 77.0336 41.5444 75.8557 41.5444Z" fill="#4B5A8A"/>
<path d="M96.5951 41.5444H85.4703C84.6441 41.5444 83.8926 41.0669 83.5402 40.3193C83.1888 39.5718 83.3008 38.688 83.8277 38.0516C88.3007 32.6485 92.0581 27.0036 92.1582 25.364C92.2595 23.7033 90.9521 23.0402 89.8819 23.0941C88.6268 23.1575 87.6034 24.1135 87.6034 25.3665C87.6034 26.5441 86.6486 27.4986 85.4706 27.4986C84.2927 27.4986 83.3379 26.5441 83.3379 25.3665C83.3379 21.7616 86.2736 18.8286 89.8819 18.8286C93.6113 18.8286 96.4234 21.6388 96.4234 25.3665C96.4234 28.1402 92.8763 33.3703 89.8929 37.2789H96.5954C97.7737 37.2789 98.7282 38.2337 98.7282 39.4117C98.7279 40.5896 97.7731 41.5444 96.5951 41.5444Z" fill="#4B5A8A"/>
<path d="M147.867 5.60266H2.13276C0.954796 5.60266 0 6.55715 0 7.73511V89.3265C0 90.5045 0.954796 91.4593 2.13276 91.4593H60.7739C63.9306 95.2711 67.7771 97.9626 72.2654 99.4776C76.4003 100.873 81.0741 101.228 85.9152 100.528V142.265C85.9152 143.443 86.8699 144.397 88.0479 144.397H139.468C140.646 144.397 141.601 143.443 141.601 142.265V98.5886C141.601 96.0906 141.172 93.6921 140.388 91.459H147.868C149.046 91.459 150.001 90.5042 150.001 89.3262V7.73511C150 6.55715 149.045 5.60266 147.867 5.60266ZM137.335 140.132H130.102V110.376C130.102 109.198 129.147 108.244 127.969 108.244C126.791 108.244 125.836 109.198 125.836 110.376V140.132H90.1804V97.9739C90.1804 97.328 89.8877 96.7169 89.3844 96.3119C88.8806 95.9069 88.2206 95.7523 87.5903 95.891C80.9823 97.342 68.7805 97.8217 61.2989 84.7292C58.2833 79.4526 57.0132 69.4852 59.9275 63.0582C60.8048 61.1238 62.7049 59.4824 64.9724 60.1776C67.0598 60.818 68.2375 63.0377 67.5971 65.1257C66.3325 69.2477 66.7219 73.6307 68.6924 77.4664C72.6062 85.084 84.7761 89.0584 99.8009 81.7179C102.738 83.3605 106.119 84.3009 109.717 84.3009C113.633 84.3009 117.292 83.1891 120.401 81.2679C129.774 81.48 137.335 89.1655 137.335 98.5892V140.132ZM93.5952 63.9138C93.5952 55.0249 100.827 47.7931 109.717 47.7931C118.607 47.7931 125.839 55.0249 125.839 63.9138C125.839 72.803 118.607 80.0351 109.717 80.0351C100.827 80.0351 93.5952 72.803 93.5952 63.9138ZM145.735 87.1938H138.339C135.347 82.3984 130.525 78.8559 124.858 77.5488C128.117 73.9338 130.104 69.1522 130.104 63.9138C130.104 52.673 120.959 43.5279 109.717 43.5279C98.4757 43.5279 89.3296 52.673 89.3296 63.9138C89.3296 69.7965 91.8374 75.1023 95.8366 78.8269C84.6178 83.5087 75.3319 81.056 72.4862 75.517C71.0263 72.6756 70.7382 69.4292 71.6749 66.3759C73.0047 62.0397 70.5591 57.4295 66.2229 56.0997C62.1796 54.8596 57.9928 56.9969 56.0428 61.2964C52.4774 69.1598 54.0726 80.6804 57.5954 86.8454C57.6634 86.9642 57.7344 87.0769 57.8033 87.1941H4.26551V9.86787H145.735V87.1938H145.735Z" fill="#4B5A8A"/>
<path d="M119.176 126.553L112.817 99.5096L118.261 91.3472C118.914 90.3673 118.65 89.043 117.67 88.3894C116.69 87.7365 115.366 88.0007 114.712 88.9806L110.322 95.5622L105.933 88.9806C105.279 88.0007 103.955 87.7365 102.975 88.3894C101.995 89.043 101.731 90.3673 102.384 91.3472L107.873 99.5773L101.837 126.575C101.699 127.19 101.841 127.835 102.224 128.336L108.684 136.787C109.084 137.31 109.665 137.619 110.322 137.625C110.972 137.625 111.643 137.329 112.048 136.82L118.769 128.368C119.176 127.857 119.326 127.188 119.176 126.553ZM110.323 132.024L106.217 126.536L110.323 107.836L114.788 126.523L110.323 132.024Z" fill="#4B5A8A"/>
</g>
<defs>
<clipPath id="clip0_126_489">
<rect width="150" height="150" fill="white"/>
</clipPath>
</defs>
</svg>
